<svg xmlns="http://www.w3.org/2000/svg" viewBox="0 0 115.72 96.54"><defs><style>.cls-1{isolation:isolate;}.cls-10,.cls-2{fill:#383642;}.cls-3,.cls-4,.cls-7,.cls-8,.cls-9{fill:#2f2d37;}.cls-4{opacity:0.62;}.cls-10,.cls-4,.cls-8{mix-blend-mode:multiply;}.cls-5{fill:#154e68;}.cls-6{fill:#246b84;}.cls-7{opacity:0.15;}.cls-7,.cls-9{mix-blend-mode:screen;}.cls-9{opacity:0.31;}.cls-10{opacity:0.48;}.cls-11{fill:#292931;}.cls-12{fill:#2d8ca5;}</style></defs><title>Mesa de trabajo 30</title><g class="cls-1"><g id="Layer_1" data-name="Layer 1"><path class="cls-2" d="M57.88,32a185.48,185.48,0,0,1-29.05-2c-10-1.66-14.2-3.93-14.2-7.57s4.24-5.9,14.2-7.56a185.48,185.48,0,0,1,29.05-2,185.71,185.71,0,0,1,29.06,2c10,1.66,14.2,3.92,14.2,7.56S96.89,28.3,86.94,30A185.71,185.71,0,0,1,57.88,32Z"/><ellipse class="cls-3" cx="57.88" cy="22.39" rx="40.43" ry="6.76"/><path class="cls-4" d="M57.88,17.35c20.59,0,37.58,2.57,40.1,5.9a1.45,1.45,0,0,0,.33-.86c0-3.73-18.1-6.75-40.43-6.75s-40.42,3-40.42,6.75a1.45,1.45,0,0,0,.33.86C20.31,19.92,37.29,17.35,57.88,17.35Z"/><path class="cls-5" d="M20.83,25.1c6.24,2.38,20.48,4,37.05,4s30.82-1.67,37.06-4C88.7,22.71,74.46,21,57.88,21S27.07,22.71,20.83,25.1Z"/><path class="cls-6" d="M57.88,21q-1.66,0-3.3,0c15.15.2,33.78,2.75,33.76,4s-18.61,3.82-33.76,4l3.3,0c16.58,0,30.82-1.67,37.06-4C88.7,22.71,74.46,21,57.88,21Z"/><path class="cls-3" d="M99.46,25.78c-2.07,1.78-6.1,3.11-12.52,4.18a185.71,185.71,0,0,1-29.06,2,185.48,185.48,0,0,1-29.05-2c-6.42-1.07-10.45-2.4-12.52-4.18a46.29,46.29,0,1,0,83.15,0Z"/><path class="cls-7" d="M57.88,32a185.48,185.48,0,0,1-29.05-2c-6.42-1.07-10.45-2.4-12.52-4.18a46.27,46.27,0,0,0,24,63.16A50.55,50.55,0,0,0,87.6,29.84l-.66.12A185.71,185.71,0,0,1,57.88,32Z"/><path class="cls-7" d="M69.26,31.71c-3.66.17-7.48.27-11.38.27a185.48,185.48,0,0,1-29.05-2c-6.42-1.07-10.45-2.4-12.52-4.18a46.25,46.25,0,0,0,10.8,54.89A50.66,50.66,0,0,0,69.26,31.71Z"/><path class="cls-3" d="M27.34,80.87l-3,14.51s1.51,1.91,5.6.83l5.39-9.71A46.81,46.81,0,0,1,27.34,80.87Z"/><path class="cls-8" d="M27.34,80.87l-.53,2.52c1.86,1.46,4.47,2.88,5,4.67s-4.18,8.48-4.18,8.48a9.07,9.07,0,0,0,2.29-.33l5.39-9.71A46.81,46.81,0,0,1,27.34,80.87Z"/><path class="cls-3" d="M88.46,80.84a46.47,46.47,0,0,1-7.95,5.64l5.4,9.73c4.09,1.08,5.6-.83,5.6-.83l-3-14.54Z"/><path class="cls-3" d="M88.46,80.84a46.47,46.47,0,0,1-7.95,5.64l5.4,9.73c4.09,1.08,5.6-.83,5.6-.83l-3-14.54Z"/><path class="cls-8" d="M84.13,88.13c.66-2.34,3-2.89,4.93-4.45l-.59-2.84h0a46.47,46.47,0,0,1-7.95,5.64l5.4,9.73a9.35,9.35,0,0,0,1.71.3S83.6,90,84.13,88.13Z"/><path class="cls-9" d="M39.19,44.61c-.71,4.17-5.5,6.84-10.68,6s-8.82-5-8.11-9.15,5.5-6.84,10.68-5.95S39.9,40.44,39.19,44.61Z"/><path class="cls-10" d="M100,27c-.19-.41-.38-.83-.58-1.24-2.07,1.78-6.1,3.11-12.52,4.18a185.71,185.71,0,0,1-29.06,2,185.48,185.48,0,0,1-29.05-2c-6.42-1.07-10.45-2.4-12.52-4.18-.2.41-.39.83-.58,1.24,1.83,2.08,6,3.57,13.1,4.75a184.27,184.27,0,0,0,29.05,2,184.5,184.5,0,0,0,29.06-2C94,30.59,98.21,29.1,100,27Z"/><path class="cls-2" d="M101.83,31.74c3.27-4.87,12.72-5.93,13.78.88,1.7,11-17.33,19-17.33,19a2.53,2.53,0,0,1-1-3.59c9.07-2.58,18.32-12.92,14-16.34-3.6-2.84-8.47,3.58-8.47,3.58Z"/><path class="cls-11" d="M101.83,31.74c3.27-4.87,12.72-5.93,13.78.88,1.7,11-17.33,19-17.33,19a2.53,2.53,0,0,1-1-3.59c9.07-2.58,18.32-12.92,14-16.34-3.6-2.84-8.47,3.58-8.47,3.58Z"/><path class="cls-11" d="M13.89,31.74c-3.27-4.87-12.72-5.93-13.78.88-1.71,11,17.33,19,17.33,19a2.53,2.53,0,0,0,1-3.59C9.33,45.47.08,35.13,4.42,31.71c3.6-2.84,8.47,3.58,8.47,3.58Z"/><path class="cls-12" d="M74.76,25.7c0,.69-10.45,2.1-23.33,2.1S28.1,26.39,28.1,25.7s10.44-2.85,23.33-2.85S74.76,25,74.76,25.7Z"/><circle class="cls-6" cx="52.38" cy="19.33" r="2.99"/><path class="cls-5" d="M54.31,17.05a3.07,3.07,0,0,1,.2,1.06,3,3,0,0,1-4.92,2.28,3,3,0,1,0,4.72-3.34Z"/><path class="cls-12" d="M52.93,17c.51.51.28,1.55-.5,2.32s-1.83,1-2.33.46-.28-1.55.51-2.31S52.43,16.5,52.93,17Z"/><path class="cls-6" d="M45.21,3a3,3,0,1,1-3-3A3,3,0,0,1,45.21,3Z"/><path class="cls-5" d="M44.15.71a3.05,3.05,0,0,1,.19,1.05,3,3,0,0,1-4.91,2.29A3,3,0,0,0,45.21,3,3,3,0,0,0,44.15.71Z"/><path class="cls-12" d="M42.77.67c.51.51.28,1.55-.5,2.32s-1.83,1-2.33.46-.28-1.55.5-2.32S42.27.16,42.77.67Z"/><circle class="cls-6" cx="77.55" cy="12.78" r="2.99"/><path class="cls-5" d="M79.48,10.5a3.07,3.07,0,0,1,.19,1.06,3,3,0,0,1-4.91,2.28,3,3,0,1,0,4.72-3.34Z"/><path class="cls-12" d="M78.1,10.46c.51.51.28,1.55-.5,2.32s-1.83,1-2.33.46-.28-1.55.5-2.31S77.6,10,78.1,10.46Z"/><circle class="cls-6" cx="46.15" cy="11.85" r="4.06" transform="translate(24.63 54.36) rotate(-77.55)"/><path class="cls-5" d="M48.76,8.75A4,4,0,0,1,45,14.25a4,4,0,0,1-2.61-1,4.06,4.06,0,1,0,6.4-4.54Z"/><path class="cls-12" d="M46.9,8.7c.68.7.37,2.11-.69,3.16s-2.48,1.32-3.16.62-.38-2.1.68-3.15S46.22,8,46.9,8.7Z"/><path class="cls-6" d="M57.85,3.61a2,2,0,1,1-2-2A2,2,0,0,1,57.85,3.61Z"/><path class="cls-5" d="M57.14,2.07a2.18,2.18,0,0,1,.13.72,2,2,0,0,1-2,2A2,2,0,0,1,54,4.32a2,2,0,0,0,3.89-.71A2,2,0,0,0,57.14,2.07Z"/><path class="cls-12" d="M56.21,2.05c.34.35.19,1-.34,1.56s-1.23.66-1.57.31-.19-1,.34-1.56S55.87,1.7,56.21,2.05Z"/><circle class="cls-6" cx="73.26" cy="7.4" r="2.01"/><path class="cls-5" d="M74.56,5.86a1.87,1.87,0,0,1,.13.71,2,2,0,0,1-3.31,1.54,2,2,0,1,0,3.18-2.25Z"/><path class="cls-12" d="M73.64,5.83c.34.35.18,1-.35,1.57s-1.23.66-1.56.31-.19-1,.34-1.56S73.3,5.49,73.64,5.83Z"/><circle class="cls-6" cx="36.04" cy="16.34" r="2.01"/><path class="cls-5" d="M37.34,14.81a2.08,2.08,0,0,1,.13.71,2,2,0,0,1-2,2,2,2,0,0,1-1.3-.47,2,2,0,0,0,3.9-.72A2,2,0,0,0,37.34,14.81Z"/><path class="cls-12" d="M36.42,14.78c.33.35.18,1.05-.35,1.56s-1.23.66-1.56.32-.19-1.05.34-1.57S36.08,14.44,36.42,14.78Z"/><circle class="cls-6" cx="65.71" cy="14.41" r="5.27"/><path class="cls-5" d="M69.1,10.39a5.26,5.26,0,0,1-8.32,5.89,5.27,5.27,0,1,0,8.32-5.89Z"/><path class="cls-12" d="M66.68,10.33c.89.9.49,2.73-.89,4.09s-3.22,1.72-4.11.81-.49-2.73.89-4.09S65.8,9.42,66.68,10.33Z"/><path class="cls-6" d="M44.83,22.07a4,4,0,0,0-4,4,26.43,26.43,0,0,0,4.32.35,25.76,25.76,0,0,0,3.72-.26s0,0,0-.06A4,4,0,0,0,44.83,22.07Z"/><path class="cls-5" d="M47.68,23.25c-.91,1.44-3,2.48-5.57,2.53a7.67,7.67,0,0,1-1.28-.07c0,.12,0,.24,0,.36a26.43,26.43,0,0,0,4.32.35,25.76,25.76,0,0,0,3.72-.26s0,0,0-.06A4,4,0,0,0,47.68,23.25Z"/><path class="cls-12" d="M45.24,22.79c.28.47-.22,1.27-1.11,1.78s-1.83.55-2.1.08.22-1.27,1.11-1.79S45,22.31,45.24,22.79Z"/><path class="cls-6" d="M71,22.66a4,4,0,0,0-4,4,26.55,26.55,0,0,0,4.33.35A27.27,27.27,0,0,0,75,26.75v-.06A4,4,0,0,0,71,22.66Z"/><path class="cls-5" d="M73.82,23.84c-.9,1.44-3,2.48-5.56,2.53A9.13,9.13,0,0,1,67,26.3c0,.12,0,.24,0,.36a26.55,26.55,0,0,0,4.33.35A27.27,27.27,0,0,0,75,26.75v-.06A4,4,0,0,0,73.82,23.84Z"/><path class="cls-12" d="M71.38,23.37c.28.48-.22,1.28-1.11,1.79s-1.82.55-2.1.08.23-1.27,1.11-1.79S71.11,22.9,71.38,23.37Z"/><path class="cls-6" d="M79.36,18.32a6.11,6.11,0,0,0-6.1,6.07,40.77,40.77,0,0,0,6.56.52,40.18,40.18,0,0,0,5.64-.39s0-.06,0-.09A6.12,6.12,0,0,0,79.36,18.32Z"/><path class="cls-5" d="M83.68,20.11c-1.37,2.19-4.62,3.76-8.44,3.83a12.49,12.49,0,0,1-1.95-.1c0,.18,0,.36,0,.55a40.77,40.77,0,0,0,6.56.52,40.18,40.18,0,0,0,5.64-.39s0-.06,0-.09A6.12,6.12,0,0,0,83.68,20.11Z"/><path class="cls-12" d="M80,19.4c.41.72-.34,1.93-1.69,2.71s-2.77.84-3.19.12.34-1.93,1.69-2.71S79.57,18.69,80,19.4Z"/><path class="cls-6" d="M51.65,25.88a2.26,2.26,0,0,0-2.26,2.24,15.58,15.58,0,0,0,4.51.05v0A2.25,2.25,0,0,0,51.65,25.88Z"/><path class="cls-5" d="M53.24,26.54A3.74,3.74,0,0,1,50.13,28a4.25,4.25,0,0,1-.72,0,1.23,1.23,0,0,0,0,.2,15.58,15.58,0,0,0,4.51.05v0A2.24,2.24,0,0,0,53.24,26.54Z"/><path class="cls-12" d="M51.88,26.28c.15.26-.13.71-.63,1s-1,.31-1.17,0,.12-.71.62-1S51.72,26,51.88,26.28Z"/><path class="cls-6" d="M64.7,21.83a2.25,2.25,0,0,0-2.25,2.23,14.11,14.11,0,0,0,2.42.2A15.23,15.23,0,0,0,67,24.12v0A2.25,2.25,0,0,0,64.7,21.83Z"/><path class="cls-5" d="M66.29,22.49a3.76,3.76,0,0,1-3.11,1.41,5.62,5.62,0,0,1-.72,0,1.21,1.21,0,0,0,0,.19,14.11,14.11,0,0,0,2.42.2A15.23,15.23,0,0,0,67,24.12v0A2.24,2.24,0,0,0,66.29,22.49Z"/><path class="cls-12" d="M64.93,22.23c.15.26-.13.71-.62,1s-1,.3-1.18,0,.13-.71.62-1S64.77,22,64.93,22.23Z"/><path class="cls-6" d="M57.4,23.56a1.77,1.77,0,0,0-1.77,1.75,11.26,11.26,0,0,0,1.9.15,12,12,0,0,0,1.63-.11v0A1.76,1.76,0,0,0,57.4,23.56Z"/><path class="cls-5" d="M58.65,24.07a2.94,2.94,0,0,1-2.45,1.11,3.44,3.44,0,0,1-.56,0c0,.05,0,.11,0,.16a11.26,11.26,0,0,0,1.9.15,12,12,0,0,0,1.63-.11v0A1.75,1.75,0,0,0,58.65,24.07Z"/><path class="cls-12" d="M57.58,23.87c.12.2-.1.56-.49.78s-.8.24-.92,0,.1-.56.48-.79S57.46,23.66,57.58,23.87Z"/><path class="cls-6" d="M34.28,23.12a1.77,1.77,0,0,0-1.77,1.75,11.22,11.22,0,0,0,1.9.16A12,12,0,0,0,36,24.91v0A1.76,1.76,0,0,0,34.28,23.12Z"/><path class="cls-5" d="M35.53,23.64a3,3,0,0,1-2.45,1.11,5.12,5.12,0,0,1-.56,0c0,.05,0,.1,0,.15a11.22,11.22,0,0,0,1.9.16A12,12,0,0,0,36,24.91v0A1.75,1.75,0,0,0,35.53,23.64Z"/><path class="cls-12" d="M34.46,23.43c.12.21-.1.56-.49.79s-.8.24-.92,0,.1-.56.48-.78S34.34,23.23,34.46,23.43Z"/></g></g></svg>