<svg id="Layer_1" data-name="Layer 1" xmlns="http://www.w3.org/2000/svg" viewBox="0 0 19.13 18.33"><defs><style>.cls-1{fill:#fff;}</style></defs><title>Mesa de trabajo 31</title><path class="cls-1" d="M19.06,10.9h0a.24.24,0,0,0,0-.09,6.47,6.47,0,0,0-3.75-4.89V4.5h0a1.2,1.2,0,0,0,0-2.39h-.56L15,.32A.29.29,0,0,0,14.74,0H10.57a.29.29,0,0,0-.28.28v0l.23,1.79H10A1.2,1.2,0,0,0,10,4.5h0V5.92a6.49,6.49,0,1,0,9.14,5.92A7.3,7.3,0,0,0,19.06,10.9ZM10.9.57h3.48l-.2,1.54H11.1Zm-.51,5.8a.28.28,0,0,0,.18-.26V4.5h2.07a.29.29,0,0,0,.29-.29.28.28,0,0,0-.29-.28H10a.63.63,0,0,1-.63-.62A.62.62,0,0,1,10,2.69h5.35a.62.62,0,0,1,.62.62.62.62,0,0,1-.62.62H15a.28.28,0,0,0-.29.28v1.9a.28.28,0,0,0,.18.26,5.91,5.91,0,0,1,3.53,4.22,4,4,0,0,1-1.55-.38,4.92,4.92,0,0,0-2.11-.43,5,5,0,0,0-2.12.43,4.13,4.13,0,0,1-1.9.39,4.18,4.18,0,0,1-1.9-.39,4.79,4.79,0,0,0-1.75-.43A6,6,0,0,1,10.39,6.37Zm2.25,11.38a5.91,5.91,0,0,1-5.91-5.92,6.1,6.1,0,0,1,.18-1.47,4.07,4.07,0,0,1,1.72.38,4.85,4.85,0,0,0,2.12.43,4.78,4.78,0,0,0,2.11-.43,4.18,4.18,0,0,1,1.9-.39,4.25,4.25,0,0,1,1.89.39,4.77,4.77,0,0,0,1.86.43c0,.22,0,.44,0,.67A5.92,5.92,0,0,1,12.64,17.75Z"/><path class="cls-1" d="M4.67,11H2.9V9.27a.38.38,0,0,0-.75,0V11H.38a.38.38,0,0,0-.38.38.37.37,0,0,0,.38.37H2.15v1.78a.38.38,0,0,0,.75,0V11.79H4.67A.36.36,0,0,0,5,11.42.37.37,0,0,0,4.67,11Z"/></svg>