<svg id="Layer_1" data-name="Layer 1" xmlns="http://www.w3.org/2000/svg" viewBox="0 0 19.42 18.36"><defs><style>.cls-1{fill:#fff;}</style></defs><title>Mesa de trabajo 32</title><path class="cls-1" d="M4.67,11H2.9V9.27a.38.38,0,0,0-.75,0V11H.38a.38.38,0,0,0-.38.38.37.37,0,0,0,.38.37H2.15v1.78a.38.38,0,0,0,.75,0V11.79H4.67A.36.36,0,0,0,5,11.42.37.37,0,0,0,4.67,11Z"/><path class="cls-1" d="M15.93,6.08h-.41a.59.59,0,0,0-.23-.16V4.5h0a1.2,1.2,0,0,0,0-2.39h-.56L15,.32A.29.29,0,0,0,14.74,0H10.57a.29.29,0,0,0-.28.28v0l.23,1.79H10A1.2,1.2,0,0,0,10,4.5h0V5.92l-.31.16H9.55A3.49,3.49,0,0,0,6.06,9.57v5.3a3.49,3.49,0,0,0,3.49,3.49h6.38a3.49,3.49,0,0,0,3.49-3.49V9.57A3.49,3.49,0,0,0,15.93,6.08ZM14.38.57l-.2,1.54H11.1L10.9.57ZM10,3.93a.63.63,0,0,1-.63-.62A.62.62,0,0,1,10,2.69h5.35a.62.62,0,0,1,.62.62.62.62,0,0,1-.62.62H15a.28.28,0,0,0-.29.28V6.08H10.57V4.5h2.07a.29.29,0,0,0,.29-.29.28.28,0,0,0-.29-.28ZM9.52,6.59c.29.14,6.41,0,6.41,0a3,3,0,0,1,3,3v1.89a9.73,9.73,0,0,0-2.66.71,8.28,8.28,0,0,1-3.08.71A3.34,3.34,0,0,1,11,12a3.19,3.19,0,0,0-2.24-.87,5.07,5.07,0,0,0-2.15.44v-2A3,3,0,0,1,9.52,6.59Zm6.41,11.27H9.55a3,3,0,0,1-3-3V12.15a3.65,3.65,0,0,1,2.16-.53,2.72,2.72,0,0,1,1.93.77,3.82,3.82,0,0,0,2.52,1h.08a8.84,8.84,0,0,0,3.19-.74A9.12,9.12,0,0,1,18.92,12v2.91A3,3,0,0,1,15.93,17.86Z"/></svg>