<svg xmlns="http://www.w3.org/2000/svg" viewBox="0 0 57.79 79.25"><defs><style>.cls-1{isolation:isolate;}.cls-10,.cls-11,.cls-17,.cls-18,.cls-2{fill:#e2f1f6;}.cls-3{fill:#c6e2e5;}.cls-4{fill:#b2cd57;}.cls-5{fill:#ed8b56;}.cls-6{fill:#f4a27d;}.cls-7{fill:#d36522;}.cls-8{fill:#bdd252;}.cls-9{fill:#d8ebef;}.cls-10{opacity:0.49;}.cls-10,.cls-13,.cls-16,.cls-18{mix-blend-mode:multiply;}.cls-11{opacity:0.63;}.cls-11,.cls-15,.cls-17,.cls-20{mix-blend-mode:screen;}.cls-12,.cls-13,.cls-15,.cls-20{fill:#704c32;}.cls-13{opacity:0.23;}.cls-14,.cls-16{fill:#855b3a;}.cls-15,.cls-16{opacity:0.25;}.cls-17{opacity:0.34;}.cls-18{opacity:0.73;}.cls-19{fill:#fff;opacity:0.66;}.cls-20{opacity:0.31;}</style></defs><title>Mesa de trabajo 29</title><g class="cls-1"><g id="Layer_1" data-name="Layer 1"><path class="cls-2" d="M19.51,17.31a59,59,0,0,1,.08,7.31C19.32,26.52-.23,32.13,0,51.74s15.41,27.67,29.22,27.5S58,70.68,57.79,51.07,37.89,26.31,37.58,24.41a59.85,59.85,0,0,1-.09-7.31S27.82,14,19.51,17.31Z"/><path class="cls-3" d="M18,12.63l.54,5.79s1.9,2.09,10,2,10-2.23,10-2.23l.4-5.79Z"/><path class="cls-4" d="M3.17,51.71c.19,17,13.21,24.52,26,24.37s25.64-7.93,25.45-25Z"/><path class="cls-5" d="M3.17,51.71c.19,17,13.21,24.52,26,24.37s25.64-7.93,25.45-25Z"/><path class="cls-6" d="M14.69,72.55c6.52-3.9,11.16-10.81,11-21.11l-22.56.27C3.29,62,8.09,68.81,14.69,72.55Z"/><path class="cls-7" d="M42.25,51.25c.16,14.28-8.82,22-19.26,24.29a31.25,31.25,0,0,0,6.19.54c12.81-.15,25.64-7.93,25.45-25Z"/><path class="cls-8" d="M54.63,51.11c0,2.4-11.47,4.48-25.68,4.65s-25.76-1.65-25.79-4,11.47-4.49,25.68-4.65S54.6,48.7,54.63,51.11Z"/><path class="cls-5" d="M54.63,51.11c0,2.4-11.47,4.48-25.68,4.65s-25.76-1.65-25.79-4,11.47-4.49,25.68-4.65S54.6,48.7,54.63,51.11Z"/><path class="cls-6" d="M16.65,47.72c-8,.83-13.5,2.33-13.49,4s5.52,3,13.58,3.67c8.05-.83,13.51-2.33,13.49-4S24.72,48.36,16.65,47.72Z"/><path class="cls-7" d="M28.84,47.06c-1.51,0-3,0-4.43.11,12.1.22,21.32,1.89,21.34,4s-9.15,4-21.24,4.53c1.44,0,2.92,0,4.44,0,14.21-.17,25.7-2.25,25.68-4.65S43.05,46.89,28.84,47.06Z"/><path class="cls-9" d="M18.5,18.42s1.9,2.09,10,2a34.32,34.32,0,0,0,4.54-.32,4.44,4.44,0,0,0,1.14-2.91c0-1.86-1.39-3.53-3.56-4.69L18,12.63Z"/><path class="cls-2" d="M38.92,12.39c0,1.73-4.65,3.18-10.44,3.25S18,14.36,18,12.63s4.66-3.18,10.45-3.24S38.9,10.66,38.92,12.39Z"/><path class="cls-10" d="M28.41,9.39c-.53,0-1.05,0-1.56,0,5.06.16,8.94,1.42,9,3S32,15.34,26.92,15.62c.51,0,1,0,1.56,0,5.79-.07,10.46-1.52,10.44-3.25S34.19,9.32,28.41,9.39Z"/><path class="cls-11" d="M28.47,15.21C22.93,15.27,18.38,14,18,12.42a.76.76,0,0,0,0,.21c0,1.73,4.73,3.08,10.52,3s10.46-1.52,10.44-3.25a.89.89,0,0,0,0-.22C38.53,13.8,34,15.14,28.47,15.21Z"/><path class="cls-12" d="M20.66,2l1.05,9.76s1.74,2.25,6.75,2.19,6.7-2.35,6.7-2.35L36,1.79Z"/><path class="cls-12" d="M20.66,2l1.05,9.76s1.74,2.25,6.75,2.19,6.7-2.35,6.7-2.35L36,1.79Z"/><path class="cls-13" d="M21.74,2A1.29,1.29,0,0,0,22.6,3.1s3.14,1,5.35,1.58c2,.51,4,1.32,4.67,2.58s.83,2.43,0,3.39a7.86,7.86,0,0,1-5.38,2.23,29.29,29.29,0,0,1-3.62.14h0l.31.13.15.07.3.1.22.08.3.09.28.07.31.07.34.07.31.06.42.05.3,0,.52,0,.27,0h.86c5.08-.06,6.7-2.35,6.7-2.35L36,1.79Z"/><path class="cls-14" d="M36,1.79c0,1-3.41,1.92-7.64,2S20.67,3,20.66,2,24.07.05,28.3,0,36,.75,36,1.79Z"/><path class="cls-15" d="M20.66,2c0,.69,1.55,1.28,3.85,1.58,2.28-.35,3.82-1,3.81-1.67S26.76.6,24.47.3C22.18.65,20.65,1.27,20.66,2Z"/><path class="cls-16" d="M28.3,0c-.59,0-1.16,0-1.7.07,3.41.15,6,.87,6,1.76s-2.53,1.67-5.94,1.9c.55,0,1.12,0,1.7,0,4.23,0,7.65-.93,7.64-2S32.53,0,28.3,0Z"/><path class="cls-15" d="M25,6.34c-1.32-.61-2.67-1.17-4-1.73l.77,7.12a3.78,3.78,0,0,0,.79.69l.42-.14c.8-.23,1.62-.37,2.42-.59,1.64-.46,3.09-1.82,2.06-3.52A5.09,5.09,0,0,0,25,6.34Z"/><path class="cls-15" d="M28.34,3.5c-4.06,0-7.38-.68-7.66-1.66a.59.59,0,0,0,0,.13c0,1,3.45,1.83,7.68,1.79S36,2.83,36,1.79a.35.35,0,0,0,0-.13C35.7,2.64,32.4,3.46,28.34,3.5Z"/><path class="cls-17" d="M19.73,15.47c-.33.11-.76,2.3,0,2.64,1.61.68,7.27,1.75,8.76,1a1.39,1.39,0,0,0,0-2.66c-1.12-.3-2.49.15-4.68-.24S20.28,15.29,19.73,15.47Z"/><path class="cls-18" d="M37.58,24.41a59.85,59.85,0,0,1-.09-7.31,32.16,32.16,0,0,1-5.19.81,49.28,49.28,0,0,0,.11,6.56c0,.18.23.39.58.64a74.51,74.51,0,0,1-10.59,0s1.77,1.35,13.23,1.52c5.66,3.16,16.82,9.73,17,24.47.22,18.4-12.95,26.93-26,28.05q1.29.07,2.58.06C43,79.08,58,70.68,57.79,51.07S37.89,26.31,37.58,24.41Z"/><path class="cls-19" d="M19.78,30.66S-2.57,44.36,9.89,61.5l7.59-.09S6.24,49.3,24.22,30.6Z"/><path class="cls-19" d="M10.71,64l7.7-.09a16.54,16.54,0,0,0,5,5.34l-7.93.1A26.85,26.85,0,0,1,10.71,64Z"/><path class="cls-20" d="M27.72,7.2c0,1-1.07,1.87-2.43,1.88a2.21,2.21,0,0,1-2.47-1.82c0-1,1.08-1.86,2.43-1.88S27.71,6.18,27.72,7.2Z"/></g></g></svg>