<svg xmlns="http://www.w3.org/2000/svg" xmlns:xlink="http://www.w3.org/1999/xlink" viewBox="0 0 277.68 21.77"><defs><style>.cls-1{fill:none;}.cls-1,.cls-6{opacity:0.1;mix-blend-mode:overlay;}.cls-2{isolation:isolate;}.cls-3{fill:#916f50;}.cls-4{clip-path:url(#clip-path);}.cls-5{fill:#96795a;}.cls-6{fill:#fff;}</style><clipPath id="clip-path"><rect class="cls-1" x="0.62" y="4.28" width="277.06" height="17.48"/></clipPath></defs><title>Mesa de trabajo 37</title><g class="cls-2"><g id="Layer_1" data-name="Layer 1"><polygon class="cls-3" points="277.59 4.36 0 4.36 16.77 0 260.3 0 277.59 4.36"/><g class="cls-4"><rect class="cls-5" x="-0.03" y="4.28" width="292.69" height="17.48"/><path class="cls-6" d="M93.48,2.3a3.11,3.11,0,0,1-1.54.06,9.89,9.89,0,0,1,1.21-.24,33.67,33.67,0,0,0,5.1-1c2.44-.6,3.87-1.89,3.32-3.14-.35-.81-1.35-1.39-3.07-1.63a16.22,16.22,0,0,0-2-.13c-1.23,0-2.47,0-3.69,0a7.76,7.76,0,0,1-3.42-.6,4.11,4.11,0,0,0-.49-.15.84.84,0,0,0-.16-.27c-.75-.62-.41-1.22.3-1.78a10,10,0,0,1,3.7-1.63,30.39,30.39,0,0,1,5.41-.77,58.9,58.9,0,0,1,7.86,0,2.63,2.63,0,0,0,.47,0c-1.39-.14-2.77-.24-4.15-.28a47.53,47.53,0,0,0-6,.28A23.83,23.83,0,0,0,89.64-7.5c-1.24.53-2.15,1.18-2,2,.1.41.47.76,1.25,1a5.23,5.23,0,0,0,2.68.95,12.93,12.93,0,0,0,3.52.06,8.5,8.5,0,0,1,5.5,1.08.74.74,0,0,1,.24.22,2.44,2.44,0,0,1,.18.47l-.7-.18s-.07.07-.06.11C100.52-.75,99.58.07,98,.76a13.36,13.36,0,0,1-3.32.79c-1.59.25-3.23.42-4.86.62a5.55,5.55,0,0,1-.71,0c-1.07,0-2.13,0-3.19,0a33.83,33.83,0,0,1-7.42-.65c-5.3-1-9.66-2.61-12.4-5.06a1,1,0,0,0-.79-.24H19.6c-1.68,0-3.37,0-5-.08C12.38-4,10.2-3.88,8-3.92L1.26-4h-1L.16-4S.1-4,.1-4a.35.35,0,0,0,0,.14c0,2.58,0,5.17,0,7.75,0,0,0,0-.16,0V3.49c0-2.31,0-4.61,0-6.92A3.93,3.93,0,0,0-.29-5.19c-.1-.2.17-.44.17-.66a30.78,30.78,0,0,0,0-3.72c-.06-.51.12-1,0-1.51a14.06,14.06,0,0,1,0-1.59v-1.55c0-.06,0-.13,0-.23H18c2.36,0,4.72,0,7.09,0l19.81,0c4.31,0,8.63,0,13,0l25.07-.06c15.26,0,30.51-.07,45.76,0,10.11.06,20.21,0,30.32.07,2.87,0,5.75,0,8.63,0l20.43,0c3.56,0,7.13,0,10.69,0,2.43,0,4.86-.06,7.28-.06h61.6c3,0,6.08.06,9.11.09.22.37.2.38-.43.38h-3l.27.2c-.06,0-.09.07-.14.07-4.06.13-8.12.23-12.19.18-2.22,0-4.45-.06-6.67-.06-3.83,0-7.67,0-11.5,0-.81,0-1.63-.07-2.44-.11-.37,0-.75,0-1.12,0a11.13,11.13,0,0,1-2.31-.15A5.94,5.94,0,0,0,236-14H194.43c-1.7,0-3.4-.06-5.11-.1a1.51,1.51,0,0,1-.56-.07c-.23-.31-.75-.23-1.2-.23H177.07a2.71,2.71,0,0,0-1.32.18,2.8,2.8,0,0,1-.67.1l-.61,0c-3.76,0-7.52.08-11.29.09-1.6,0-3.2-.06-4.81-.1a1.58,1.58,0,0,1-.63-.11,2.33,2.33,0,0,0-1.2-.19H139.26c-.41,0-.92-.07-1.08.23a1,1,0,0,1-.35.07h-.41L122.84-14c-4.21,0-8.42.07-12.63.07L53.46-14c-1.6,0-3.2-.06-4.81-.1a1.45,1.45,0,0,1-.47-.05,2.71,2.71,0,0,0-1.64-.25H36.15a2.59,2.59,0,0,0-1.11.16,3.61,3.61,0,0,1-1.16.14c-3.9,0-7.79.08-11.69.1-1.54,0-3.07-.06-4.6-.1a1.26,1.26,0,0,1-.62-.12,1.46,1.46,0,0,0-1-.18H1l-.87,0v4.15a46.75,46.75,0,0,1,5.14-.19c2.59-.13,5.21,0,7.78-.14s5.2,0,7.77-.16c3.05-.14,6.09-.07,9.13-.11,2,0,4-.08,6.05-.18H35L5.19-11c-.92,0-1.84,0-2.76-.05a8.52,8.52,0,0,1-.88-.16l0-.12.94,0,10.76-.16a1.48,1.48,0,0,0,.48,0c.39-.38,1.12-.24,1.71-.24,1.13,0,2.27,0,3.4,0C27.42-12.1,36-11.92,44.55-12c2.76,0,5.53.08,8.3.12a1.85,1.85,0,0,1,.65.1,2.14,2.14,0,0,0,1.28.19H78.22a4.11,4.11,0,0,1,1.73.27l-.18.86c.19,0,.42,0,.64,0s.6-.08.9-.08a40,40,0,0,0,4-.34c1.42-.14,2.8-.36,4.2-.53,1.18-.15,2.35-.31,3.54-.43.86-.09,1.75-.1,2.63-.16A28.41,28.41,0,0,1,99-12.13a4,4,0,0,1,.76.09,17.62,17.62,0,0,1-3,.36h2c.36,0,.71-.08,1.08-.1a10.5,10.5,0,0,1,2.8,0,2.52,2.52,0,0,0,.48.06c1.52,0,3,0,4.57.11l3.26.28,2.92.32c.5.06,1,.14,1.66.24a1.89,1.89,0,0,1-1,.08L111.17-11c-.48-.05-1-.08-1.45-.16-1.09-.19-2.31,0-3.39-.27a4.06,4.06,0,0,0-.71,0h-7.3c-.4,0-.8.06-1.2.09s-.53.06-.8.06c-1.16,0-2.26.16-3.39.25s-2.49.29-3.72.45c-2.36.31-4.59.76-6.77,1.26A62.94,62.94,0,0,0,75-7.18a2.28,2.28,0,0,1-.3.07c-.61-.19-.76-.49-.74-.79a5.31,5.31,0,0,1,.34-1.43c.3-.77.16-.88-1.51-1-.27,0-.55,0-.82,0H56.83c-3,0-6,.05-9,0-4.9-.16-9.79-.11-14.68-.07-5.51.05-11,.11-16.52.12a2.35,2.35,0,0,0-.61,0,8.85,8.85,0,0,1-2.75.26c-.31,0-.61,0-.91,0-.68,0-1.35.1-2,.1H.1v4.3H1.42q30.84,0,61.69,0a5.92,5.92,0,0,1,4.26,1.28,17.31,17.31,0,0,0,4.95,3.17A34,34,0,0,0,80.83,1.1a39.33,39.33,0,0,0,7.28.27,26.8,26.8,0,0,0,5.5-.82c.89-.24,1.23-.63,1.2-1.09s-.6-.7-1.31-.86a21.58,21.58,0,0,0-2.22-.31,16.6,16.6,0,0,1-5-1.29c-1.37-.64-1.87-1.39-1.68-2.31C84.9-7,87-8,89.84-8.75A33.74,33.74,0,0,1,95-9.67a54.59,54.59,0,0,1,7.15-.42c.4,0,.81,0,1.21.06,1,.07,2.09.12,3.11.23,1.21.14,2.41.32,3.59.51a61.94,61.94,0,0,1,7,1.56c2.34.66,4.62,1.36,6.94,2a4.45,4.45,0,0,0,.85.13c.34,0,.68,0,1,0h42.46c13.68,0,27.36,0,41,0l8.92.08h1.11l0-.1c-.75,0-1.5-.1-2.25-.1-2.09,0-4.19,0-6.27-.06-3.28-.13-6.57,0-9.85-.08a1.84,1.84,0,0,1-.41,0c-.13,0-.3-.1-.3-.15s.12-.16.24-.18a4.13,4.13,0,0,1,.71,0h4.32c3.32,0,6.63-.07,9.95-.09,2.29,0,4.59-.08,6.86,0s4.58.05,6.86.1c10.58.23,21.17,0,31.75.1,5-.22,10.06-.09,15.09-.13h.2c.3,0,.58,0,.59.16s-.25.23-.61.23h-1.54c-2.73,0-5.49,0-8.19.16-3.18.18-6.37,0-9.52.18-2,.11-3.89.1-5.83.11l-4.83,0h-.9v.1H273.3l.05.09c-.13,0-.24.08-.37.1-1.53.22-3.12.09-4.66.18-1.91.12-3.84,0-5.73.13-3.51.22-7,0-10.55.16s-7.12.12-10.67.06c-3.83-.07-7.67,0-11.49-.1-3.21-.1-6.43-.07-9.63-.18-4.62-.17-9.24,0-13.86-.08a4.27,4.27,0,0,0-1.21.13c.15,0,.31.06.47.07l3.56.13a1,1,0,0,1,.85.32,24.15,24.15,0,0,1-4.88.07c-.29,0-.61,0-.92,0-.87,0-1.75-.07-2.62-.14a3.63,3.63,0,0,1-.85-.31l1.41-.08c-3.14-.14-6.24,0-9.42.14,0,.2-.06.37-.62.37s-1,0-1.54,0H152A5.7,5.7,0,0,0,150-4a5.15,5.15,0,0,1-1.29.09c-.83,0-1.65,0-2.47,0-2.08,0-4.16.12-6.24.14-1.5,0-3,0-4.51,0h-7.6c-.82,0-1.63-.07-2.44-.09-.58,0-1.16,0-1.78,0a5,5,0,0,0,2.32.62c1.78,0,3.56,0,5.34,0q13.53,0,27,0c3,0,6,.06,8.91.14,1.42,0,2.82.18,4.19.27.14.2.22.33-.23.38a10.82,10.82,0,0,1-1.26.15H124.45l-4.34-2.33c0,.1-.07.15,0,.17,1.05.7,2.12,1.38,3.15,2.08a1.83,1.83,0,0,0,1.18.3c.3,0,.61,0,.92,0q44.37,0,88.74,0c2.24,0,4.49.06,6.71.26.63.06,1.3,0,1.95,0l8,.19c1.46,0,2.93.09,4.39.09q10.8,0,21.6,0c1.19,0,2.38-.07,3.58-.09l5.12-.07c2.39,0,4.79,0,7.17-.15,1,0,1.93-.15,2.92-.13.19,0,.37,0,.7,0a1.18,1.18,0,0,1-.36.17c-.52.06-1.05.13-1.58.15-1.59.07-3.19.11-4.78.17l-5,.22c-.54,0-1.08.06-1.63.07-2.39,0-4.79,0-7.16.14-5.44.29-10.88.08-16.31.15-1.92,0-3.84,0-5.76,0-1.18,0-2.36-.1-3.55-.14-.82,0-1.65,0-2.47,0-2.31-.08-4.64-.05-6.92-.27h-.31c-2.83-.07-5.66-.09-8.48-.2-4.52-.18-9-.08-13.55-.09q-36.92,0-73.83,0a3.26,3.26,0,0,1-2.1-.53c-.89-.68-1.77-1.37-2.68-2.05a13.88,13.88,0,0,0-4.42-2.31,42.48,42.48,0,0,0-6.79-1.36c-1.42-.19-2.86-.23-4.29-.35a17.14,17.14,0,0,0-3,0c-1,.11-2,.1-3,.21a17.2,17.2,0,0,0-4,.94L94-6.95c-.73.41-1.19.77.19,1.18,1.14.34,2.36.63,3.59.89a35.23,35.23,0,0,1,5,1.28c1.06.41,1.74.91,1.58,1.58a5,5,0,0,1-.33.65c-.45,1.1-1.65,2-3.55,2.66a28.42,28.42,0,0,1-4.06,1.27,35.22,35.22,0,0,1-3.55.52,40.6,40.6,0,0,1-4.27.13c-.67,0-1.35-.07-2-.12s-1.48-.08-2.2-.16c-1.3-.14-2.58-.32-3.89-.44a34.25,34.25,0,0,1-4.55-.76C73.56,1.19,71.31.56,69,0a3,3,0,0,0-.72-.13L70.19.5c.14,0,.37.11.36.15-.15.35.48.42.88.54a41.77,41.77,0,0,0,6.89,1.52c1.66.21,3.3.44,5,.58s3.22.28,4.83.25S91.4,3.45,93,3.3c1.36-.13,2.73-.25,4-.47A30.58,30.58,0,0,0,104,1.14c2.05-.9,3-2,2.88-3.35-.2-1.52-1.62-2.76-3.66-3.89l-.61-.33A3,3,0,0,1,104-7a12.42,12.42,0,0,1,4.09-.11,41.42,41.42,0,0,1,5.09.92,16.45,16.45,0,0,1,5.62,2.48,7.55,7.55,0,0,1,2.11,2.27c.15.24.22.49.36.74a2,2,0,0,0,1.46.69,20.89,20.89,0,0,0,2.51.2c1.95,0,3.91,0,5.86,0a10.65,10.65,0,0,1,2.56.24,3.53,3.53,0,0,0,.81.05h14.6a6.13,6.13,0,0,0,1-.11,15.29,15.29,0,0,1,2.72-.18h6.88q27.72,0,55.43,0c1.62,0,3.24.17,4.86.25l.31,0,5.21.13c.92,0,1.83.09,2.74.14l1,0c2.33,0,4.68-.05,7,0,3.15.14,6.3.13,9.44.06,4-.09,8,0,12-.13,2.67-.08,5.34-.06,8-.16,2.43-.1,4.85-.08,7.28-.11.39,0,.79-.05,1.24-.07.07.18-.12.25-.48.28-1.64.09-3.28.19-4.91.3-1.14.07-2.28.17-3.41.26h-.1l-4.78.17c-6.88.26-13.76.1-20.64.12-2.66,0-5.32-.12-8-.18-1.19,0-2.39,0-3.56-.11-2.09-.15-4.23,0-6.3-.27h-.2L215.43.89,213.8.83c-1,0-2-.09-3.05-.09H186.17a9.36,9.36,0,0,0-1.58.13,14.37,14.37,0,0,1-2.31.16c-5.3,0-10.6.09-15.91.09q-21.5,0-43,0a15,15,0,0,1-2-.11c-.87-.11-1.43-.4-1.59-.84s-.38-1-.6-1.56A6.39,6.39,0,0,0,116.4-4a12.87,12.87,0,0,0-5.1-1.67,8.83,8.83,0,0,0-3.83,0,9.08,9.08,0,0,1,1.09,2.15,4.33,4.33,0,0,1,.16,2.05c-.35,1.37-1.79,2.34-4,3.14a41.94,41.94,0,0,1-7.61,1.87c-1.11.17-2.32.2-3.47.32-2.3.25-4.63.06-6.95.13-1-.21-2.08,0-3.06-.27a11.11,11.11,0,0,0-1.48-.14,62.13,62.13,0,0,1-6.28-.84c-2.39-.42-4.75-.89-7.12-1.34a13.07,13.07,0,0,0-2.38-.23c-13.64,0-27.29.07-40.93,0-6.5,0-13,0-19.51-.07H5.07c-.32,0-.56-.09-.59-.3A18,18,0,0,1,6.8.65c.79,0,1.57,0,2.37,0L9.25.33c1.13,0,2.28-.09,3.43-.1H66.56c.67,0,1.33.07,2,.11l.53.19L69.2.4,68.54.35A2.07,2.07,0,0,0,68,.17C66.9.1,65.78,0,64.67,0a36.17,36.17,0,0,1-3.8-.26,4.22,4.22,0,0,1-.55-.12,1.39,1.39,0,0,1,1-.28,40.44,40.44,0,0,1,4.8.1A2.37,2.37,0,0,0,67-.6c-1-.32-2-.66-3-1a4.41,4.41,0,0,0-.91,0c-2.7,0-5.41,0-8.12,0-1.22,0-2.44-.08-3.66-.13a3.71,3.71,0,0,1-.4-.12c.31,0,.49-.1.68-.11,3.88-.17,7.78-.11,11.68-.14a10.56,10.56,0,0,1,4.75.93,26.2,26.2,0,0,0,5,1.9c1.39.36,2.84.67,4.29,1,1.24.24,2.51.48,3.8.65a32.77,32.77,0,0,0,4.48.35c1.36,0,2.73,0,4.09,0,1,0,2.09-.08,3.14-.14.27,0,.63,0,.64-.24a6.57,6.57,0,0,0,1.17,0c1.49-.26,2.95-.56,4.4-.87a3,3,0,0,0,1.51-.73A30.12,30.12,0,0,1,93.48,2.3Zm.29-10c-.63.2-1.22.36-1.74.56a1.74,1.74,0,0,0-1,.76c-.37.72.78,1.87,2.77,2.09,1.34.14,2.73.21,4.1.3,0,0,.06,0,.13-.08l-.56-.11-3.11-.58c-1.6-.3-2.31-1.34-1.76-1.94C92.91-7,93.33-7.36,93.77-7.73Zm-63,3v-.11a5.62,5.62,0,0,0-.71,0l-12.51.1-4.1,0c-2.6,0-5.21,0-7.81,0A46.26,46.26,0,0,1,.28-4.9a.67.67,0,0,0-.23.05l.09.23,1-.06c1.23,0,2.45-.05,3.68-.05h9.56l15.72,0C30.31-4.71,30.56-4.75,30.8-4.77ZM92.33-2.59l0,.11,1.94.22a15.14,15.14,0,0,1,3.29.73c.77.28,1.32.63.6,1.26-.16.15-.35.29-.62.52.94-.37,1.13-.52,1.45-1,.42-.7,0-1.14-1.49-1.39a14.24,14.24,0,0,0-2.75-.28c-.46,0-.94-.06-1.41-.08Zm48-1.83V-4.5h-1l-11.8,0a15.11,15.11,0,0,1-1.51-.1,16.34,16.34,0,0,0-2.39.05,2,2,0,0,0,.4.09Zm-18.86-.29a19,19,0,0,0-4.86-2.16Zm114.42-.6,0-.05h-8.5v.05ZM87.9-3.31a2.86,2.86,0,0,1-1.75-2.23C85.86-4.65,86.35-3.88,87.9-3.31ZM53.65-4.48l0,.05h6.58v-.05Zm48.69,1.56A5.51,5.51,0,0,1,103-2a3.06,3.06,0,0,1,.16.88C103.71-1.69,103.39-2.42,102.34-2.92Zm3.29-5.58v-.05h-4.5v.05Zm116.44,3a5,5,0,0,0,2,0Z"/><path class="cls-6" d="M276.89,3.37c-.13.2-.51.11-.77.14a6.78,6.78,0,0,1-1,.1,30,30,0,0,0-3.31.19c-1.22.11-2.43.25-3.66.41l1.08,0h6.68c1.2,0,1.22,0,1.21.56a4.59,4.59,0,0,1-.17.69h-1.23c-5.28,0-10.55,0-15.83,0-1.28,0-2.57.06-4,.1l.7.15a20.14,20.14,0,0,1-2.07.23c-1.62.07-3.24.17-4.86.25l-1.43,0c-1.16,0-2.32.07-3.47.08-.44,0-.87-.07-1.31-.08h-2.26A29.31,29.31,0,0,1,236.87,6c-.25,0-.55,0-.81,0a2.73,2.73,0,0,1-.83-.2c6.61.15,13.19-.2,19.8-.15a.85.85,0,0,0-.17,0c-1.74,0-3.48-.08-5.22-.08q-40.45,0-80.92,0c-13.16,0-26.31.06-39.47.06L46.71,5.48c-2.74,0-5.48.06-8.22.06L.67,5.47H-.11c-.53-.29-.43-.61-.41-.93s.27-.29.67-.3H77.91a11.66,11.66,0,0,0-2.73-.32c-2.62-.13-5.25-.09-7.88-.12-1.09,0-2.17-.1-3.25-.14-.24,0-.48,0-.72,0-2.36,0-4.74,0-7.09-.05-2.56-.11-5.12,0-7.68-.08H46.33a1.24,1.24,0,0,1-1-.31A5.72,5.72,0,0,1,46,3.14C55,2.87,63.93,3,72.9,3a8.67,8.67,0,0,1,1.78.16,71.39,71.39,0,0,0,7.37,1.08,7,7,0,0,0,.92,0c3.4,0,6.79,0,10.18,0A31.52,31.52,0,0,0,96.67,4Q99.93,3.6,103,3A67.51,67.51,0,0,0,111.91.52c.9-.32,1.75-.67,2.67-1,.84.5,1.23,1.07,1,1.67a12.56,12.56,0,0,1-1,1.76c0,.09-.08.18-.15.34h1.07q10.74,0,21.49,0c1.5,0,3,0,4.49-.12.78-.06,1.55-.16,2.36-.17,1.6,0,3.2-.11,4.8-.12,5.11,0,10.21,0,15.32,0a24.21,24.21,0,0,1,3.65.15,26.22,26.22,0,0,0,4.42.16c4.32,0,8.64,0,12.95,0,1.48,0,3,0,4.42,0,7.45-.33,14.91-.07,22.37-.15.43,0,.87.06,1.31.08s.73.06,1.1.07c1.19.05,2.41,0,3.57.15,1.63.17,3.28.21,4.94.28s3.17.17,4.76.26l.72,0a23.43,23.43,0,0,1,3.25.15c.26,0,.55,0,.82,0l7.26.18c.85,0,1.71,0,2.56,0h11.31c1.81,0,3.62-.06,5.43-.1,1.29,0,2.59-.07,3.87-.13,1.49-.07,3-.18,4.45-.26,1.25-.07,2.5-.11,3.75-.19,1.08-.06,2.15-.14,3.22-.24A12.87,12.87,0,0,1,276.89,3.37ZM99,4.23h3.49a1.29,1.29,0,0,0,.36-.06A29.74,29.74,0,0,1,107.61,3a14.49,14.49,0,0,1,3-.15c.5,0,.68.15.53.39a3.74,3.74,0,0,1-.27.31c-.16.2-.3.41-.51.68,14.78,0,29.38,0,44-.05a1.14,1.14,0,0,0-.4-.06l-9.56,0-1,0-3.87-.13-3.15-.14a.89.89,0,0,1-.34-.08c-.27-.26-.66-.2-1.13-.14a11,11,0,0,1-1.42.06c-.65,0-1.32,0-2,0-2.7.22-5.44.21-8.16.26-2,0-4,.09-6,.17-1.29,0-2.6,0-3.9,0-1,0-1.76-.41-1.19-.9a3.49,3.49,0,0,0,.67-.91c.07-.1,0-.23,0-.36-2.35.42-4.57.84-6.82,1.22S101.57,3.84,99,4.23Zm102.08-.09,0,.06h17.5c-.59-.09-1.24,0-1.76-.15a9.32,9.32,0,0,0-2.52-.11c-1.66.13-3.32.14-5,.15l-7.79,0ZM108,4.21c0-.27-.35-.3-.71-.28l-3,.22v.06Z"/><path class="cls-6" d="M.11,16.27v1.94l.53,0c2,0,3.91,0,5.87,0,3.38,0,6.77-.08,10.15-.09,2.47,0,4.94,0,7.4,0,4.08,0,8.15.06,12.22.09s8,.08,12,.09,8,0,12,0,8,0,12,0,8,.13,12,.19c2,0,4,.08,6,.1,3.59,0,7.19.05,10.78.06q12.49,0,25,0h7.9c1.37,0,2.74,0,4.1.06a1.87,1.87,0,0,1,.58.07,3.11,3.11,0,0,0,1.58.17c1.16,0,2.32,0,3.48.05.92,0,1.87,0,2.75.11a63.8,63.8,0,0,0,7.45.17c3.12,0,6.24,0,9.35,0h33.71v-.1H182c-.82,0-1.64.05-2.46,0-.41,0-.83-.06-1.46-.11a26.12,26.12,0,0,1,4.65-.31l11.68-.2c2,0,4-.06,5.95-.06q15.12,0,30.23,0c3.73,0,7.46.05,11.19.06q11.92,0,23.85,0c2.26,0,4.52,0,6.77,0,1.36,0,2.73.05,4.09.07.35,0,.56.06.5.21s-.3.16-.48.17c-.63.05-1.28.08-1.92.11a4.05,4.05,0,0,0-1.52.19,4.77,4.77,0,0,1-1.27.13c-5.52,0-11,0-16.55,0-.76,0-1.52-.15-2.28-.21a11.9,11.9,0,0,0-1.2-.07H228.8c-3.53,0-7.06,0-10.59,0-2.12,0-4.24,0-6.36.06a7.75,7.75,0,0,1,.87.09c.18,0,.38.16.38.24s-.21.19-.39.22c-.43.07-.9.11-1.36.16l-.58,0v.11H268.9c2.15,0,4.31,0,6.46.06.42,0,.81,0,1,.29a5.26,5.26,0,0,1-.6.08c-2.66.05-5.32.13-8,.13q-28.38,0-56.76,0h-1.26c.41.34.34.44-.31.45-1.65,0-3.32.09-4.93,0a15.25,15.25,0,0,1-3.54-.38,4.33,4.33,0,0,0-1.11-.05h-47.2c-2.87,0-5.75,0-8.63,0s-6,.05-8.94,0c-5.38-.17-10.75,0-16.12-.09-1.4,0-2.82,0-4.2-.07-2.84-.17-5.67-.05-8.51-.09-1.44,0-2.89,0-4.31,0-2.53-.15-5.07,0-7.58-.1-3.14-.14-6.28-.12-9.42-.18-1.77,0-3.53-.11-5.3-.16l-3.16-.1c-.88,0-1.76-.08-2.63-.14a7.59,7.59,0,0,1-1-.21l.06-.1.53-.05H74l31.05,0H125.5l12.44,0a1.65,1.65,0,0,0,1.06-.17c-.34,0-.6,0-.85,0-1.78,0-3.57,0-5.34,0-7.87.2-15.75.09-23.63.12H94.7l-7.6-.05c-3.53,0-7-.07-10.57-.07-1.92,0-3.83.06-5.74.09a3.66,3.66,0,0,0-.59.07,17.32,17.32,0,0,1-4.38.2c-2-.11-4,0-5.94-.12-6.42-.27-12.86-.12-19.29-.14-7.71,0-15.42,0-23.13,0-2.35,0-4.69-.12-7-.18-.92,0-1.84-.05-2.75-.1l-3.92-.26c-1.18-.07-2.36-.12-3.61-.18L.06,19A3.11,3.11,0,0,0,.4,19c1.6,0,3.21,0,4.81.08.58,0,1.15.07,1.71.13.12,0,.32.12.29.15a.87.87,0,0,1-.35.2,1.43,1.43,0,0,1-.3,0L1,19.57c-.4,0-.79-.07-1.2-.1a23.49,23.49,0,0,0,.06-3c-.11-1,.08-2,0-3a15.39,15.39,0,0,1,.14-3V15c5.2-.35,10.35-.25,15.57-.24.24.35.82.38,1.51.38,2.53,0,5.05.06,7.58.17,2.14.1,4.31.07,6.45.15,2.56.1,5.12.1,7.69.09,1.67,0,3.38,0,5-.13,1.31-.12,2.52.09,3.81,0,2.23-.12,4.49-.12,6.74-.16,1.26,0,2.53-.06,3.79,0s2.78.06,4.21.09c-.08.33-.54.36-1,.37-2.11.05-4.22.1-6.34.13s-4.16.09-6.24.09a29.54,29.54,0,0,1-4.21-.21,7.76,7.76,0,0,0-1.52,0c-.58,0-1.14.07-1.71.1l-4,.25c-.24,0-.48,0-.72,0-4,0-8.07.16-12.1.08-6.71-.14-13.42,0-20.12-.07C3,16.12,1.59,16.22.11,16.27Zm0-.46,2.32-.22a15.66,15.66,0,0,0-1.93-.08C.11,15.51,0,15.6.13,15.81ZM209.05,20.2l0,.05H210V20.2Z"/><path class="cls-6" d="M176,25a4.11,4.11,0,0,1-1.84.29c-3.14,0-6.28.1-9.43.1-2.25,0-4.5-.06-6.75-.09h-1c-.09.31-.44.52-1,.57-.8.06-1.61.1-2.42.14l-2.85.1c-.74,0-1.49.06-2.24.06q-11.82,0-23.65,0c-3.22,0-6.44,0-9.65-.08q-3-.09-5.93-.07c-2.25,0-4.49.1-6.74.14a2.25,2.25,0,0,1-.72-.11c1.78-.38,3.74-.24,5.73-.52a6.76,6.76,0,0,0-.77-.1c-4.53,0-9.06-.06-13.57,0-2.36,0-4.71,0-7.07.06-3,0-6.09,0-9.13.07l-.32,0,.19.4c-.51,0-.91,0-1.32,0l-7.46.16H45.45c-1,0-2,0-3,0-1.39,0-2.78-.11-4.17-.16A1.08,1.08,0,0,1,38,26a5.69,5.69,0,0,0-2.32-.24c-7.13,0-14.26,0-21.39,0-3.18,0-6.36-.07-9.53-.12-.34,0-.67-.06-1.14-.1.73-.51,1.91-.32,2.77-.52-2.1-.11-4.2.21-6.37-.06v2H-.11c0-.51,0-1,0-1.54a3.09,3.09,0,0,0-.16-.65c0-.05,0-.1,0-.15.43-.92.12-1.86.19-2.79a19.94,19.94,0,0,1,.13-2V24.3l.53.07c1.47,0,2.94,0,4.41.07.63,0,1.26.1,1.9.16.1,0,.26,0,.28,0,.27.44.93.22,1.49.21.79,0,1.58,0,2.37,0,1,0,2-.08,3-.1a11.1,11.1,0,0,1,1.53,0,33,33,0,0,0,4,0c2.86-.09,5.74-.14,8.61-.14,2.07,0,4.15.13,6.23.21a2,2,0,0,1,.5,0,10.08,10.08,0,0,0,2.7.15c3,0,6,0,8.94,0l9.44-.09,8.1-.07c3.32,0,6.63-.08,10-.12h.3l26.4-.13c1.81,0,3.63,0,5.44,0a4.52,4.52,0,0,0,1-.08l-.71,0-8.43,0c-3,0-6.09,0-9.14,0-1.09,0-2.18-.08-3.26-.14a.69.69,0,0,1-.25-.09c.21-.23.7-.18,1.06-.22s.75,0,1.12,0c2,0,4-.06,6.05-.06h36.92c1.53,0,3.06.1,4.59.14l2.3.05c.18.19.15.31-.23.33s-1,0-1.43,0c-4.73,0-9.46,0-14.19,0-1.22,0-2.45.09-3.67.09-2.78,0-5.55,0-8.33,0a3.11,3.11,0,0,0-.8.08c1.26,0,2.52,0,3.78.05,2.59,0,5.21,0,7.77.18,3.72.22,7.44.19,11.17.21l11.91.06h1.1l0-.11c-.23,0-.46-.08-.7-.1-1.25-.06-2.5-.1-3.75-.17a8.79,8.79,0,0,1-1.15-.21,2.4,2.4,0,0,1,1.35-.27c1.5,0,3,.07,4.5.08a33,33,0,0,1,3.5.29c1.11.12,2.32,0,3.48,0,3.18,0,6.36,0,9.54.06.82,0,1.64-.06,2.45-.06q4.17,0,8.33,0c1.13,0,2.25.06,3.38.1A6,6,0,0,1,176,25Zm-103.9.54,0,0h1.32v0Z"/><path class="cls-6" d="M93.88,8.9h48.06c.42,0,.83,0,1.24-.05V8.72c-.24,0-.49,0-.73,0-1.8,0-3.62.13-5.42.1-12-.16-24,0-36.07-.06-6.51,0-13,0-19.53-.05-1.19,0-2.37-.1-3.56-.16a2.54,2.54,0,0,1-.45-.1,3.18,3.18,0,0,1,.47-.09h.82l7.47-.16h61.38c1.65,0,3.29,0,4.93.07,1.39,0,2.78.09,4.21.14-.18.27-.72.15-1.08.24h15c1.89,0,3.78,0,5.65.05,1.71.08,3.41.07,5.12.07a1.6,1.6,0,0,0,.56-.09l-10.48-.32s0-.05-.11-.14l1.2,0h42.16c.6,0,1.21.07,1.82.1l.91.06,2.33.11c1.53.06,3.06.09,4.58.19,1.92.12,3.88,0,5.78.27h.2l5.42.13,6.76.16h1.95c2.71,0,5.42,0,8.12,0,1.84,0,3.68-.1,5.52-.15h.31c1.84,0,3.68-.06,5.52-.14,1.28-.05,2.55-.18,3.83-.26,1.07-.07,2.16-.12,3.23-.18a6.35,6.35,0,0,0,.79-.09,13.31,13.31,0,0,1,2.91-.2h2.88c.64,0,.79,0,.82.34a3,3,0,0,1-.09.61c-1,0-1.86,0-2.74,0-.5,0-1,.06-1.5.1l-.91,0-1.82.09-4.37.2-6.51.25c-.13,0-.26,0-.4,0-2.15.05-4.29.12-6.44.13-6,0-12.07,0-18.1,0-2.25,0-4.49-.11-6.74-.18-.78,0-1.56,0-2.34-.1-3.1-.18-6.21-.1-9.32-.13-1.09,0-2.17-.11-3.25-.16a1.12,1.12,0,0,1-.28,0c-.22-.38-.87-.25-1.35-.24-2.9,0-5.81,0-8.71.1-1.89,0-3.77.23-5.65.34-.27,0-.55,0-.82,0l-17.48,0c-1.12,0-2.24-.1-3.36-.14l-.82,0H171.3c-5.34,0-10.68.08-16,.1-10.55,0-21.11.1-31.66,0l-16.11-.15c-2.9,0-5.8-.13-8.7-.13-1.56,0-3.12-.1-4.68-.16A1.82,1.82,0,0,1,93.89,9Z"/><path class="cls-6" d="M76.87,15.36l1,0H92l14.28-.06,6.27,0q6.27,0,12.53-.11c.77,0,1.54-.13,2.32-.14,2,0,3.9,0,5.85,0l5-.06a7,7,0,0,1,.8.06c.65.07,1.3.2,2,.21,13.86.34,27.73.11,41.59.17,4.89,0,9.79,0,14.69-.05,3.59,0,7.19,0,10.79,0,2.8,0,5.6,0,8.4.06.51,0,1,0,1.53,0h39.38c2.6,0,5.2,0,7.8.06a2.83,2.83,0,0,0,1.39-.2A4.39,4.39,0,0,1,268,15c2.25,0,4.51,0,6.77,0,.53,0,1.06,0,1.66.07v-.69h-1.58l-2.46,0h-39.7c-2,0-4-.09-6-.13-.39,0-.68-.05-.6-.31a3.12,3.12,0,0,1,.44,0c2.05,0,4.1-.06,6.15-.07q7.31,0,14.6,0h23.24c1.6,0,3.2.06,4.81.09h1.12v-1.1h.22a4.26,4.26,0,0,0,0,.62,6.09,6.09,0,0,0,.17.61.26.26,0,0,1,0,.23,1,1,0,0,0,0,1.22c0,.05.09.1.07.14-.55.88-.1,1.79-.25,2.68a.28.28,0,0,1-.15.24V15.8h-1.89c-1,0-2.05,0-3.08,0H185.38c-.64,0-1.27.08-1.91.12-.1,0-.2,0-.3,0l-4.49.14-5.41.15h-32.6c-.45,0-1.06.13-1.24-.23a1.26,1.26,0,0,0-.38-.05h-.51c-8.15,0-16.31,0-24.46-.09-6.2-.09-12.39,0-18.58-.08l-11.59-.15c-2.18,0-4.35-.17-6.54-.14a4.63,4.63,0,0,1-.52-.07Z"/><path class="cls-6" d="M87.34-.28c-.23.35-.89.34-1.36.41a23.84,23.84,0,0,1-3.51.19,23.35,23.35,0,0,1-5-.56c-4.16-.89-7-2.37-8.71-4.33A5.89,5.89,0,0,1,68-5.82c-.41-.77-1.16-1-2.86-1.12-.72,0-1.44,0-2.16,0-2.19,0-4.37,0-6.54-.15-1-.06-2.13,0-3.19,0l-5.11-.14c-.19,0-.52,0-.53-.1-.11-.33-.56-.24-1-.22s-.75,0-1.12,0c-5.73,0-11.45,0-17.17,0-3.91,0-7.82,0-11.71-.09-3.7-.1-7.39,0-11.08-.08-.34,0-.9.09-.92-.16s.58-.2.94-.2c3.76,0,7.53-.11,11.29-.13,5.28,0,10.56,0,15.84,0,3.87,0,7.75-.05,11.61,0,3.66.1,7.32,0,11,.08.35,0,.79-.06.88.21a3,3,0,0,1-1.33.18l-3.9,0a4.92,4.92,0,0,0-1.06.08,3.58,3.58,0,0,0,.45.09h.82c1.26,0,2.52-.11,3.78-.11,3.08,0,6.17,0,9.25,0,1.19,0,2.38-.07,3.58-.08s1.6.18,1.68.73a9.74,9.74,0,0,0,.36,1.91A4.79,4.79,0,0,0,71.93-2.9,17.08,17.08,0,0,0,78.1-.85a16.59,16.59,0,0,0,4,.17c-.23-.46-.48-.92-.68-1.38a4.11,4.11,0,0,1-.14-3.78C82-7.15,83.61-8.15,86-8.9a31.06,31.06,0,0,1,4.58-1c1.4-.23,2.83-.42,4.28-.57,1.19-.11,2.42-.15,3.64-.18s2.26,0,3.39,0a15.33,15.33,0,0,1,2.53.13c.68.12,1.47.1,2.2.17,1,.1,2.09.2,3.12.34,2.41.33,4.73.76,7,1.27,1,.23,2,.45,3,.74a6.55,6.55,0,0,0,2.64.24A46.09,46.09,0,0,1,127-7.9c2.47,0,4.94,0,7.4,0,4.72.15,9.45,0,14.16.11,3.69.1,7.37.11,11.06.17,1.9,0,3.81.11,5.71.16l3.16.1,3.15.14a1.29,1.29,0,0,1,.37.12,2.5,2.5,0,0,1-.51.1c-.34,0-.69,0-1,0H122.14a6,6,0,0,1-2.06-.31,58.24,58.24,0,0,0-11.29-2.58c-1.19-.16-2.47-.18-3.69-.32a52.63,52.63,0,0,0-8-.13,36.93,36.93,0,0,0-5,.59,22.55,22.55,0,0,0-6.48,2A9.27,9.27,0,0,0,82.3-5.2c-.38.54-.19,1,.3,1.48A18.64,18.64,0,0,0,85-2,17.89,17.89,0,0,1,87.34-.28Z"/><path class="cls-6" d="M10,9.52h4.8a4.12,4.12,0,0,1,.61,0,2.16,2.16,0,0,1,.45.15,1.34,1.34,0,0,1-.46.2c-.87.07-1.75.14-2.63.14-1.27,0-2.51,0-3.76.16-.33,0-.68,0-1,0H.38l-.53,0c0-1.39,0-2.75,0-4.11,0,0,.06,0,.15-.13V9.82L2.32,9.6c-.28-.21-1.16-.06-1.2-.42,0,0,.07-.08.12-.08l4.59-.16c.91,0,1.83-.07,2.75-.09s1.63-.06,2.45-.06c3.6,0,7.2,0,10.79,0,2,0,4,.1,6,.15h.83c2.22,0,4.46,0,6.67.05,2.88.13,5.74,0,8.61.08,1.88,0,3.78,0,5.64.08,2.53.14,5.06,0,7.59.08,2.29,0,4.59,0,6.88,0,1.23,0,2.45.09,3.68.09,2.29,0,4.57,0,6.86-.08,1.76-.06,3.55,0,5.32.07.44,0,.89,0,1.33,0a1.65,1.65,0,0,1,.42.16,2.35,2.35,0,0,1-.39.19,1.83,1.83,0,0,1-.41,0c-1.25.06-2.5.14-3.76.15-1.09,0-2.18,0-3.27-.07-.51,0-1-.07-1.52-.07h-3l-12.93.09c-5.54,0-11.09.1-16.63,0-2.59,0-5.18-.12-7.77-.17-1.43,0-2.86,0-4.29-.1-1,0-2-.09-2.94-.14H24l-9.55,0H10Z"/><path class="cls-6" d="M276.08,10.4c-.2,0-.39.06-.6.07-1.5.1-3,.08-4.52.28-.13,0-.27,0-.41,0-1.36,0-2.72.07-4.07.13s-2.9.18-4.35.26c-.34,0-.69,0-1,0l-2.74.1-1.53.06c-3.89.14-7.79.13-11.69.13-1,0-2.1.1-3.15.09-3.21,0-6.44,0-9.63-.15-1.9-.07-3.81,0-5.7-.21-1.42-.14-2.92-.09-4.38-.16-1.25-.06-2.49-.17-3.73-.25l-.81,0a5.68,5.68,0,0,1-.72,0,19,19,0,0,0-3.85-.15H187.88l-9.14,0c-2,0-4-.06-5.94-.1a1.06,1.06,0,0,1-.56-.17c.53-.06,1.06-.15,1.6-.17,1,0,2,0,3,0l19.61-.1c5.68,0,11.36-.06,17-.06,1.11,0,2.22.13,3.33.19l4.35.26,5.08.25c.14,0,.27,0,.41,0,2.18.05,4.36.11,6.55.13q7.59.07,15.19.1c2.7,0,5.4-.08,8.09-.13.47,0,.94-.06,1.4-.1a58,58,0,0,1,6.33-.13c1.42,0,2.86-.07,4.28-.12l3.68-.1,3.26-.09a4.48,4.48,0,0,1,.63.06Z"/><path class="cls-6" d="M276.52,22.21V20.73h.15a5.3,5.3,0,0,0,0,.69c0,.33-.13.65.28,1,.2.15,0,.42,0,.66-.4,0-.71,0-1,0a19,19,0,0,1-3.15-.34,3.4,3.4,0,0,0-.8,0c-6.17,0-12.35-.08-18.51,0-5.13.09-10.27.12-15.39.05-10.45-.14-20.89,0-31.34-.08-2.07,0-4.15-.11-6.22-.16l-.34-.07a1.94,1.94,0,0,1,1.07-.2c.75,0,1.5,0,2.26,0,5.75,0,11.5-.08,17.25-.1q13.56,0,27.13-.06c7.16,0,14.31,0,21.47.06l5.54,0C275.41,22.15,275.9,22.18,276.52,22.21Z"/><path class="cls-6" d="M85.43,13.93a1.76,1.76,0,0,1,.25,0l7.9-.06c.54,0,1.07,0,1.61,0h34.75c.41,0,.82,0,1.23,0a7,7,0,0,0,1.45-.11,14.16,14.16,0,0,1,2.09-.16c2.21-.06,4.42-.09,6.63-.13,1.5,0,3-.08,4.5-.07,1.3,0,2.59.07,3.92.11,0,.29-.38.33-.79.35l-5.71.16c-1.7,0-3.41,0-5.11.11-.66,0-1.3.15-2,.19-1.08.06-2.17.12-3.26.12H90.88c-1.63,0-3.27-.09-4.9-.13C85.58,14.24,85.31,14.18,85.43,13.93Z"/><path class="cls-6" d="M196.09,1.71l-1.77.08c0,.1.09.23,0,.29a1.6,1.6,0,0,1-.63.1c-1.54,0-3.08,0-4.62,0-2.52,0-5,.1-7.56.15-.27,0-.54,0-.82,0-4.48,0-9,0-13.46,0-1.81,0-3.63,0-5.42-.08s-3.69,0-5.53-.08a3.14,3.14,0,0,1-1.76-.3c.34,0,.58-.06.82-.07l3.77-.1a1.2,1.2,0,0,0,.46-.06c.22-.36.84-.25,1.34-.26,4.48,0,9-.07,13.43-.09,2.33,0,4.67-.07,7,0,4.51.14,9,.05,13.53.08A2.06,2.06,0,0,1,196.09,1.71Z"/><path class="cls-6" d="M222,1.66l4.42.13c.27,0,.55,0,.82,0a43.87,43.87,0,0,1,5.27.27c.3,0,.61,0,.92,0l1.7.12.3,0c1.29,0,2.58.11,3.88.14q2.46.06,4.92.06c1.67,0,3.37,0,5-.08s3.37,0,5-.26c.12,0,.27,0,.4,0,1.4,0,2.79-.07,4.18-.13s2.9-.2,4.35-.26q2.81-.12,5.61-.18c1.2,0,2.4,0,3.6,0,.29,0,.59,0,1,0-.58.3-1.32.18-1.76.35.12.08.37.17.34.23s-.31.14-.48.2a.33.33,0,0,1-.1,0c-2.08.05-4.16.11-6.24.12-1,0-2-.13-3-.1-1.56,0-3.11.15-4.66.23l-.3,0c-1.66,0-3.33.08-5,.14-1.26,0-2.51.09-3.77.13l-1,0c-3,0-6,0-9,0-1.11,0-2.23-.1-3.34-.15h-.41c-1.53,0-3.07-.06-4.59-.13s-2.9-.15-4.32-.31c-1-.11-2-.23-3.07-.27C222.28,2,221.94,2,222,1.66Z"/><path class="cls-6" d="M276.8,12.45h-1.52c-1.26,0-2.52,0-3.78.07-1.9.07-3.81.07-5.69.25-.82.08-1.68.09-2.53.13l-3.95.19-5.07.25-.61,0c-3.34.09-6.69.18-10,.13-1,0-2-.09-3-.14l-.4,0,.17-.16,3.6-.15,3.25-.13c.58,0,1.16,0,1.74,0l6.31-.28,4.08-.14c1.84-.06,3.68-.11,5.51-.2.77,0,1.52-.16,2.27-.26a45.49,45.49,0,0,1,6.75-.42c.85,0,1.7,0,2.55,0,.47,0,.63.08.57.32S276.86,12.25,276.8,12.45Z"/><path class="cls-6" d="M13.88-.14c.1-.37.53-.37.94-.37,1.65,0,3.29,0,4.93,0,7.18-.15,14.36-.12,21.54-.12,1.43,0,2.88,0,4.3,0,3.15.17,6.29,0,9.44.09a2.42,2.42,0,0,1,1.39.29c-.22,0-.4.07-.57.08-.48,0-1,0-1.44,0L48.4,0h-.83Q33.92,0,20.25,0C19.17,0,18.09-.09,17-.13c-.61,0-1.23,0-1.85,0Z"/><path class="cls-6" d="M114.36,12.32c.13-.23.35-.33.74-.34h.72l6.46,0c6.77,0,13.55-.09,20.32-.09,3.45,0,6.9.08,10.35.12a2.21,2.21,0,0,1,1.22.29,2.49,2.49,0,0,1-.33.07c-1.49,0-3,.1-4.49.1l-28.43.06c-1.15,0-2.3-.1-3.45-.14-.69,0-1.37,0-2.06,0Z"/><path class="cls-6" d="M194.39-.21a3.25,3.25,0,0,1-.45.07c-1,0-2,.07-3.05.09C189.26,0,187.62,0,186,0q-12.37,0-24.75,0c-1.15,0-2.31-.09-3.46-.13-.65,0-1.3,0-2,0l-1,0c-.12-.26.18-.31.49-.34s.54,0,.82,0c2.09,0,4.18,0,6.26,0C168.9-.71,175.47-.61,182-.64c1.47,0,2.95,0,4.42,0,2.28,0,4.56.12,6.84.12.54,0,.72.18,1.15.17Z"/><path class="cls-6" d="M13.88,2.11a1.25,1.25,0,0,1,.92-.3c1.84,0,3.68-.08,5.52-.09.81,0,1.63.09,2.44.08,1.43,0,2.86-.11,4.29-.11q9.91,0,19.83,0c2.12,0,4.23.08,6.35.13.15,0,.31,0,.49.06-.08.29-.48.3-.89.3-1.61,0-3.23,0-4.83,0-2.36,0-4.71.1-7.06.15-.27,0-.55,0-.82,0-4.76,0-9.52,0-14.29,0-.81,0-1.63,0-2.45,0-1,0-2,0-3,0-.54,0-1.07-.07-1.61-.11l-.6,0c-.71,0-1.42-.1-2.13-.11S14.68,2.09,13.88,2.11Z"/><path class="cls-6" d="M29.3,11.18a9.69,9.69,0,0,0,1.32.29c.65.07,1.33.08,2,.09,1.78,0,3.56,0,5.33,0,.9,0,1.8.09,2.69.13l0,.1a4.86,4.86,0,0,1-.55.1c-5.7.22-11.42.15-17.12.11-3.17,0-6.34-.11-9.52-.11-2.15,0-4.3,0-6.46-.06-.54,0-1.08,0-1.62.05a1,1,0,0,1-.84-.18,8.86,8.86,0,0,1,1.23-.17c2.25,0,4.51-.05,6.76-.08l9.24-.14c.05-.31.64-.36,1.14-.36,1.15,0,2.3,0,3.46.08l.82,0,2.12.09Z"/><path class="cls-6" d="M1.52,3A3.44,3.44,0,0,1,2,3c3,0,5.94-.11,8.91-.13q5.59,0,11.18,0c1.71,0,3.41.09,5.11.13a1.86,1.86,0,0,1,.44.18,2.85,2.85,0,0,1-.41,0c-1.28,0-2.57.13-3.86.14H7.74c-.5,0-1,.07-1.49.11a2.72,2.72,0,0,1-.39,0C4.39,3.43,3,3.32,1.52,3.17Z"/><path class="cls-6" d="M190.7,7.53c7-.28,13.75-.29,20.52,0,.1.26-.2.32-.64.32h-2.47c-2.87,0-5.74.09-8.61.09-2.42,0-4.84,0-7.26-.09A3,3,0,0,1,190.7,7.53Z"/><path class="cls-6" d="M257.79,7.73a4.17,4.17,0,0,1-.5.13c-1.64.16-3.3.29-4.94.45a93.48,93.48,0,0,1-9.76.25,22.62,22.62,0,0,1-3.5-.24,5.3,5.3,0,0,0-.81,0c-.3,0-.7,0-.68-.19s.48-.17.8-.17.6,0,.9,0c3.31,0,6.63,0,9.94-.07,1.62,0,3.23-.19,4.85-.26,1.09,0,2.19,0,3.28,0A2,2,0,0,1,257.79,7.73Z"/><path class="cls-6" d="M51.12,6.37l.83,0c1.36,0,2.72-.07,4.08-.09,2.36,0,4.72-.08,7.07-.06,2.59,0,5.18.1,7.77.15a2,2,0,0,1,.5,0,.34.34,0,0,1,.22.2s-.15.09-.26.12a.92.92,0,0,1-.3,0c-1.67,0-3.33.08-5,.1s-3.56,0-5.34,0c-1.51,0-3,0-4.52,0S53.38,6.73,52,6.7C51.54,6.69,51.2,6.64,51.12,6.37Z"/><path class="cls-6" d="M34.58,3.77a1.94,1.94,0,0,1-1.33.32H26.88l-10.56,0H15.14c.17-.26.53-.26.91-.28,1.38-.07,2.76-.16,4.14-.24.37,0,.74,0,1.11,0,2.95,0,5.89,0,8.84,0,.57,0,1.15,0,1.73.06Z"/><path class="cls-6" d="M29.33,11.2c.05-.08.05-.21.15-.23a5.41,5.41,0,0,1,1.07-.15c3.08-.05,6.15-.1,9.23-.13,1.81,0,3.63,0,5.44,0,.57,0,1.12.08,1.87.13a4.39,4.39,0,0,1-1.86.33c-1.44,0-2.88,0-4.31,0s-2.79.05-4.19.1a40,40,0,0,1-6-.09c-.46,0-.95,0-1.43,0Z"/><path class="cls-6" d="M160.4,10.62a1.88,1.88,0,0,1-1.21.27h-2.47c-2.8,0-5.6.08-8.4.09-1.84,0-3.68-.06-5.52-.09-.39,0-.68-.05-.72-.26C143.48,10.31,158.56,10.3,160.4,10.62Z"/><path class="cls-6" d="M157.6,6.84a174.59,174.59,0,0,1,18.32,0,1.89,1.89,0,0,1-1,.22c-.41,0-.82,0-1.23,0h-4.51c-1.57,0-3.13.09-4.7.09-2,0-4-.06-6-.09C158.09,7.11,157.68,7.09,157.6,6.84Z"/><path class="cls-6" d="M35.24,6.94c-.89.06-1.78.16-2.67.17-2.66,0-5.33,0-8,0-1.81,0-3.62,0-5.43,0-.66,0-1.31-.1-2-.16.17-.25.52-.29.89-.3l1.64,0H32.78c.55,0,1.1,0,1.64,0a5,5,0,0,1,.86.16Z"/><path class="cls-6" d="M19.61,10.54a10,10,0,0,1-1.33.22c-3,.06-6,.1-9,.14H7.56L2,10.76a.77.77,0,0,1-.46-.17c.66-.06,1.32-.16,2-.19,1.21-.05,2.44-.09,3.66-.09,1.56,0,3.13,0,4.69.07l1.33,0h5.44l1,0Z"/><path class="cls-6" d="M60.36,20.69a9.88,9.88,0,0,1,1.22-.12c2,0,4.09.07,6.13.13a9,9,0,0,1,1.37.18c.11,0,.24.13.22.18s-.2.11-.34.15a1.43,1.43,0,0,1-.3,0c-1.64,0-3.28,0-4.92,0-1,0-2-.17-3-.27a1.91,1.91,0,0,1-.41-.11Z"/><path class="cls-6" d="M209.9-.36c.2.24.13.36-.29.37s-.75,0-1.12,0c-1.16,0-2.33,0-3.49,0s-2.08-.1-3.12-.18A6.37,6.37,0,0,1,201-.38a2.68,2.68,0,0,1,1.34-.25,44,44,0,0,1,4.59.1C207.88-.42,208.93-.41,209.9-.36Z"/><path class="cls-6" d="M171.2,11.49c-.06.26-.4.28-.76.28-1.87,0-3.74.08-5.62-.11a18.62,18.62,0,0,1-2.47-.25c-.1-.21.15-.3.55-.3,1.74,0,3.48,0,5.22.07.94,0,1.87.14,2.8.22A1.48,1.48,0,0,1,171.2,11.49Z"/><path class="cls-6" d="M162.3,18.9c.09,0,.16-.14.28-.15a8.09,8.09,0,0,1,1-.09c2.12-.05,4.21,0,6.31.17A9.66,9.66,0,0,1,171,19c.1,0,.23.09.21.13a.31.31,0,0,1-.24.18,8.32,8.32,0,0,1-1.12.06,48,48,0,0,1-5.09-.12A7.19,7.19,0,0,1,162.3,18.9Z"/><path class="cls-6" d="M122.49,1.68h1.45c1.29,0,2.6,0,3.89,0A18.9,18.9,0,0,1,131.3,2a.42.42,0,0,1,.15.09,2.85,2.85,0,0,1-1.43.25,39.94,39.94,0,0,1-4.77-.14c-.74-.1-1.53-.11-2.3-.15C122.57,2,122.39,2,122.49,1.68Z"/><path class="cls-6" d="M123.71,10.61h-1.95c-.85,0-1.71,0-2.56,0-1.18,0-2.37-.07-3.54-.14a5.64,5.64,0,0,1-1-.2c0-.21.34-.24.64-.25,1,0,2-.09,2.95-.06,1.62.06,3.23.18,4.84.29C123.39,10.26,123.39,10.28,123.71,10.61Z"/><path class="cls-6" d="M262.29-5.51V3h-.08V-5.5Z"/><ellipse class="cls-6" cx="262.24" cy="7.11" rx="0.06" ry="1.59"/><path class="cls-6" d="M262.28,9.77v1.47h-.08V9.78Z"/><path class="cls-6" d="M262.27,19.45v.8h-.07v-.8Z"/></g></g></g></svg>