<svg id="Layer_1" data-name="Layer 1" xmlns="http://www.w3.org/2000/svg" viewBox="0 0 438.14 96.42"><defs><style>.cls-1{opacity:0.5;}.cls-2{fill:#dac69f;}</style></defs><title>Mesa de trabajo 44</title><g class="cls-1"><path class="cls-2" d="M435.67,66.54c1.36-1.86-1.25.79-.1.64-1.18-1-2.25-6.93-1.42-7.6L436,62.67c1.29-4.06-4.53-6.63-1.27-11.52.22-1.68,4.4-5,2.38-5.32-2.34,1.65-.26,3.08-4.74,3.11V43.19l1.35.24,0-1.11-1.31,0V36.49c2.9-.59-.89,3.89,1.41,1.82-.93-.1-2.08-1.64-2.45-2.28.79-1.77,2.89.74,2.47-3.11-3.47-.64.29-7.83-2.93-1.82-1-3.76.71-4,.56-8.42-1.48.93,3-.51.94-3.09V14.75l.33-.24c.31-7.72,3.38,84.56,3.41,77.36.84-.66-5.48-4.73-4-3.25-.61-1,5.55-1.39,5.46-3.61,3-4.29-6.86,4.35-3.26,1.08-2-.28,4.55-5.14,3.29-8.3-3.11,1-7.93,6.7-6.67,9.87-1.49,0,4.34-.09,2.92-1.27l-1.49-50.08c1.33-5.18,0-18.35,2-26-.64-1.09-1.31-2.7-2-3.13l1.49,66.87a2.29,2.29,0,0,0,1.16,0l-1.16-3.8v-.44c.58.13,1.39,1.35,1.87.25a2.82,2.82,0,0,1-1.87-1.54V62.3c.06-.11.09-.22.16-.33s-.12-.13-.16-.21V56.55a3.56,3.56,0,0,0,.22-.71,2.35,2.35,0,0,1-.22-1.06l-1-48.32H414.16c-3.39-1-7-2-6.46-3.11-8.94,2.1-23.58-3.12-38.25-.1-3.24-.49,2.76-.77,1-1.32-3.72,1-8.21,1.23-16.53.77l.94-.25C331.5,2.7,321.48,1.7,295.21,1l1.94,1.17a69.79,69.79,0,0,1-9.47-.82c-6.48,1.78,15.85.1,9.95,2.07-7.49-2.39-39.81,0-44.87-2.75-8.68,0,2.55,1.35-6.13,1.34l-2.31-.74-2.19,1c-5.69-.16-8.57-1.07-8.78-1.7,1.38.08,3.93-.17,5.41-.22-7.38-.87-20.82.29-23.35,0l8.34.45c-23.7.69-52.64-.27-75.53,1.22l1.73.55c-17.48,1-14-.61-33.2-.13l.7-.13c-1.92.27-71.28.48-73.7.61C42.54,3,41.28,3,40,3.05s-3.38,0-5.07,0c3.21-.32.09-.64-3.17-1s-6.53-.66-1.83-1C15,1.66,12.69,1.87,11.1,2.23a76.51,76.51,0,0,1,3.64,6.88,23.11,23.11,0,0,0-1.88,1.38c.85,1.57,1.5,2.37,2,3.53a11,11,0,0,1,.64,2.08A19.07,19.07,0,0,1,16,18.86c-1.62-3.84-2.87,3-5-1.31C6.81,27.35,15.1,32.1,9.07,36.6c5.22,4.5,2.9-8.49,4-6,1.71-2.11,3.91,3.72,3.38,6.8-.11,3.13-6.68,5.32-6.58,13.2,0-.79-.37-.84-.35-1.62-1.33,3,1.81,5.77-.36,9.39,3.16,2-.18,4.69,3.85,5.28l-.93-7.23c1.05,4.1,5.76,7.94,3.48,14.69-.81-.53-1.88-2.54-2.48-3.92-1.19,2,.79,3.8-.43,5.85-4-.58-.88-8.78-3.95-13.17C7,62,11.63,68.2,7.26,66c5.55,3.17-.7,7.76,3.54,13.09l-2.41-.35c.38.84,1.52,2.59,1.45,4.14L6.71,80.07c2.67,4.32-2.33,8.33-.88,12.47-.07-8.67,2.91-2,4.67-5.61,3.16,10.46-4.23-90-3.53-79C7.09,6,5.44,2.86,6.43,5.08c-.5,2.28,1.72,5.3.45,6.69.5,7.94-.66-1.21.82,2.16-2.94,2.71,1.2,3.9,2.14,7.38l-2.45,0c-1.58,9,7.57,16.87,5.67,25L7.2,28.43l3.34,18.71-2.8-.88c2.08,4.62,1.54,6.06.76,10.58,1.73-1.05,4.45.59,4.53,4.6-1.46,2.73-2.33-1.53-2,4.14C9.51,64.3,7.58,62.9,9.84,60.43,9,60.18,8.3,59.16,7.51,58.9c-1.67,3-.38,7.4-.36,9.45a5.35,5.35,0,0,1,.58-2.22l3.4,8.23c-.92,1.29-1.66.27-2.39-.75.27,1.66,1.39,2.82,1.6,5.27-2-.64-.91-.48-1.85-3.95l-.92,7.84c-.87.52.76,4,0,3C6.42,90.12,6.83,0,5.28,5.78a3.63,3.63,0,0,1,1,2.13c-.46,5.41-2.9,10.21-.17,16.63l-.43,3.64c.81,5,1.36-4.93,2.71,3.44,1.14,5.93-3,2.22-4,4.3,1.81,2.94,7,35.12,4.05,40.57-.67-1.8-.14-3.22-.41-4.9l-2,4.15C6.78,76.86,8.3,61,1.12,71c10,.85,3.83,16.39,7.61,16.71L7.28,90.44c.07-.78-.34-.91-.27-1.68C3.7,94.08,10.52-3.71,9.53,3.15,9,5.53,8,7.2,7.18,5.57L8.89,10.9c-.11,1.28-1,1.22-1.16.29l.51,7.45L8,18.58a33.36,33.36,0,0,1,3.48,5.07c-1,2.06-.74-1-1.6-.51l1.68,4.49c-1.79,1.83-3.53-1.89-3.27-5-6.9,4.2,1.73,3.73-2.3,12.79l-.87-4.24C14.23,24.84-2,46.3.2,42,7.86,35.2,8.37,38.1,8.08,37.3c-.52,1.37-.77,3.18.63,5.81-2.46,0-1.86,2.6-1.72,5.81l-.11-.22c.94,3.48-.55,3.21.92,5.25-.32,3.88.3,4.68-1.82,5.59-.52,6.21.89-4.28,1.51,3.06-1.25,5.16.08,8.78,2,15-1.12,3.61-2-.63-2.92.66.86,1.12,1.73,2,2.59,3.32-.06,1.18-.86.84-1.26.65.51,2.1,1.32,2.08,2.12,2.36s1.58.82,2,3.6c1.57.3.76,2.64-.31,6.26,3.35.34,7.62.72,12.45.88a95,95,0,0,0,14.45-.46c1.47.23,1.05.47.53.73s-2,.55-1.3.86c.83,0,1.34-.08,1.71-.12l1.24-.11L43.07,96c1.39-.12,69.68-.22,70.72-.31l5-.45c2.84-.3,5.34-.64,11.41-1.52l10.34,1c-7.6-1.19,2.11-2.6,10.61-3.76L150,90.76h3l-1.79.24,1.54.33,2-.57h6.72c0,.47-1.71,1-3.81,1.55l-4.88-1c-3.35,1-6.49,2-5.79,3a35.12,35.12,0,0,1,4.45-.43c-.88.26-1.44.5-1,.65s1.87-.18,4.09-.58l3.09,1.76.74-.7L176,96.1c12.7-1.78,23.74-4.4,43.9-5.13-5,1.3-1.07,2.12-1.34,3.65-5.5-1.62-15.62.69-26.07.36,5.46.17,4.26.91,2.87,1.16L214,94.66c-.42,1.26,4,.94,8.83,1.46-3.68-2.48,13.89-1.65,21.47-2.41.47.83-1.35,1.68-10.6,1.48,10.21,1.87,13.19-2.91,23.21-1.33-2.26,0-3.48-.1-4.37.32,5.27-.74,18.17-.15,15.14.57l-2.26,0c15,.29,45.65,0,47.89-2.09.15.27-2,2.54-2.87,3l18.44-4.89h8.41c1.07,1.94,2.78,4.23-5.84,4.94a88,88,0,0,0,15.51-.08c-2.44-.26-6.07-2.62-2.74-2.78,9.13,2,6.34,1.07,17.6,2.79-3.65-.39.41-3.23,6.18-3.13-.91.42.48,2.8-1.63,3.09l14.36-2.78c-3.59.5-.64,2.36,2.58,3.15-1.49-.55,12.41.05,16.24-.23l-6.09-.64a50.72,50.72,0,0,0,16.1-1.79l3-.75c1.21-.24,2.5-.46,3.82-.65a63.74,63.74,0,0,1,9.87-.59c-.6.29-.95,1.18,0,2s-3.57,1.09,2.79,1.27c.62-.29,1.46-.75,2.37-1.3-1.84-2.43,3.13-4.62.87-7V77.43c3.82,3.81.44,8.1,2.51,14.06"/></g></svg>