<?xml version="1.0" encoding="utf-8"?>
<!-- Generator: Adobe Illustrator 15.0.0, SVG Export Plug-In . SVG Version: 6.00 Build 0)  -->
<!DOCTYPE svg PUBLIC "-//W3C//DTD SVG 1.1//EN" "http://www.w3.org/Graphics/SVG/1.1/DTD/svg11.dtd">
<svg version="1.1" xmlns="http://www.w3.org/2000/svg" xmlns:xlink="http://www.w3.org/1999/xlink" x="0px" y="0px"
	 width="930.093px" height="930.091px" viewBox="-20.687 -20.685 930.093 930.091"
	 enable-background="new -20.687 -20.685 930.093 930.091" xml:space="preserve">
<g id="Layer_1">
	<title>Mesa de trabajo 41</title>
	<path fill="#B88B5B" d="M814.455,1.886H79.043C37.048,1.886,3,35.954,3,77.929v735.408c0,41.995,34.048,76.058,76.043,76.058
		h735.412c41.997,0,76.007-34.062,76.007-76.058V77.929C890.462,35.954,856.452,1.886,814.455,1.886z M818.868,817.635H77.859
		V76.626h741.009V817.635z"/>
</g>
<g id="Layer_2" display="none">
	<path display="inline" fill="#B88B5B" d="M1467.825,942.441c-259.757,0-470.274-210.557-470.274-470.274
		c0-259.711,210.518-470.281,470.274-470.281c259.755,0,470.333,210.57,470.333,470.281
		C1938.158,731.885,1727.58,942.441,1467.825,942.441L1467.825,942.441z M1467.825,156.083
		c-174.573,0-316.105,141.554-316.105,316.084c0,174.598,141.532,316.091,316.105,316.091
		c174.576,0,316.107-141.493,316.107-316.091c0-0.254,0-0.515,0-0.751c0-174.179-141.172-315.333-315.354-315.333
		C1468.341,156.083,1468.086,156.083,1467.825,156.083z"/>
	<path display="inline" fill="#B88B5B" d="M2855.537,909.341h-870.426c-28.076,0.22-54.087-14.886-67.816-39.342
		c-13.747-23.885-13.747-53.232,0-77.114l438.643-720.065c22.113-36.399,69.545-48.024,105.983-25.929
		c10.513,6.438,19.471,15.34,25.851,25.929l437.212,719.329c13.729,23.826,13.729,53.211,0,77.094
		C2911.111,894.518,2884.371,909.953,2855.537,909.341z M2118.517,755.134h599.78l-296.828-494.2L2118.517,755.134z"/>
</g>
</svg>
