<?xml version="1.0" encoding="utf-8"?>
<!-- Generator: Adobe Illustrator 15.0.0, SVG Export Plug-In . SVG Version: 6.00 Build 0)  -->
<!DOCTYPE svg PUBLIC "-//W3C//DTD SVG 1.1//EN" "http://www.w3.org/Graphics/SVG/1.1/DTD/svg11.dtd">
<svg version="1.1" xmlns="http://www.w3.org/2000/svg" xmlns:xlink="http://www.w3.org/1999/xlink" x="0px" y="0px"
	 width="930.093px" height="930.09px" viewBox="0 0 930.093 930.09" enable-background="new 0 0 930.093 930.09"
	 xml:space="preserve">
<g id="Layer_1" display="none">
	<g id="Layer_1_1_">
		<title>Mesa de trabajo 41</title>
		<path display="inline" fill="#B88B5B" d="M814.455,1.886H79.043C37.048,1.886,3,35.954,3,77.929v735.407
			c0,41.996,34.048,76.059,76.043,76.059h735.412c41.998,0,76.008-34.062,76.008-76.059V77.929
			C890.462,35.954,856.453,1.886,814.455,1.886z M818.869,817.635H77.859V76.626h741.01V817.635z"/>
	</g>
	<g id="Layer_3" display="inline">
		<path fill="#B88B5B" d="M446.312,1.886C201.754,1.886,3.553,200.135,3.553,444.649c0,244.521,198.201,442.757,442.759,442.757
			c244.556,0,442.812-198.236,442.812-442.757C889.125,200.135,690.867,1.886,446.312,1.886z M446.514,816.133
			c-205.902,0-372.82-166.918-372.82-372.819c0-205.902,166.918-372.82,372.82-372.82s372.82,166.918,372.82,372.82
			C819.333,649.215,652.416,816.133,446.514,816.133z"/>
	</g>
</g>
<g id="Layer_2_1_">
	<path fill="#B88B5B" d="M915.582,767.044L522.355,120.085c-5.736-9.523-13.795-17.53-23.248-23.32
		c-32.773-19.872-75.434-9.417-95.322,23.32L9.272,767.708c-12.363,21.478-12.363,47.873,0,69.354
		c12.349,21.997,35.742,35.583,60.994,35.384h782.854c25.934,0.552,49.984-13.331,62.461-36.063
		C927.929,814.903,927.929,788.474,915.582,767.044z M62.719,804.544L464.687,153.71l389.682,650.834H62.719z"/>
</g>
</svg>
