<?xml version="1.0" encoding="utf-8"?>
<!-- Generator: Adobe Illustrator 15.0.0, SVG Export Plug-In . SVG Version: 6.00 Build 0)  -->
<!DOCTYPE svg PUBLIC "-//W3C//DTD SVG 1.1//EN" "http://www.w3.org/Graphics/SVG/1.1/DTD/svg11.dtd">
<svg version="1.1" xmlns="http://www.w3.org/2000/svg" xmlns:xlink="http://www.w3.org/1999/xlink" x="0px" y="0px"
	 width="930.093px" height="930.091px" viewBox="-20.687 -20.685 930.093 930.091"
	 enable-background="new -20.687 -20.685 930.093 930.091" xml:space="preserve">
<g id="Layer_1" display="none">
	<title>Mesa de trabajo 41</title>
	<path display="inline" fill="#B88B5B" d="M814.455,1.886H79.043C37.048,1.886,3,35.954,3,77.929v735.408
		c0,41.995,34.048,76.058,76.043,76.058h735.412c41.997,0,76.007-34.062,76.007-76.058V77.929
		C890.462,35.954,856.452,1.886,814.455,1.886z M818.868,817.635H77.859V76.626h741.009V817.635z"/>
</g>
<g id="Layer_3">
	<path fill="#B88B5B" d="M446.312,1.886C201.754,1.886,3.553,200.135,3.553,444.649c0,244.521,198.201,442.757,442.759,442.757
		c244.556,0,442.812-198.236,442.812-442.757C889.124,200.135,690.867,1.886,446.312,1.886z M446.514,816.134
		c-205.902,0-372.82-166.918-372.82-372.82s166.918-372.82,372.82-372.82s372.82,166.918,372.82,372.82
		S652.416,816.134,446.514,816.134z"/>
</g>
<g id="Layer_2">
	<path fill="#B88B5B" d="M2855.537,909.341h-870.426c-28.076,0.22-54.087-14.886-67.816-39.342
		c-13.747-23.885-13.747-53.232,0-77.114l438.643-720.065c22.113-36.399,69.545-48.024,105.983-25.929
		c10.513,6.438,19.471,15.34,25.851,25.929l437.212,719.329c13.729,23.826,13.729,53.211,0,77.094
		C2911.111,894.518,2884.371,909.953,2855.537,909.341z M2118.517,755.134h599.78l-296.828-494.2L2118.517,755.134z"/>
</g>
</svg>
