<svg xmlns="http://www.w3.org/2000/svg" viewBox="0 0 44.51 48.2"><defs><style>.cls-1{isolation:isolate;}.cls-15,.cls-17,.cls-2,.cls-8,.cls-9{fill:#e2f1f6;}.cls-3{fill:#65cc3a;}.cls-18,.cls-4{fill:#fff;}.cls-4{opacity:0.2;}.cls-5{fill:#53f222;}.cls-6{fill:#c6e2e5;}.cls-7{fill:#d8ebef;}.cls-8{opacity:0.49;}.cls-11,.cls-14,.cls-17,.cls-8{mix-blend-mode:multiply;}.cls-9{opacity:0.63;}.cls-13,.cls-15,.cls-16,.cls-9{mix-blend-mode:screen;}.cls-10,.cls-11,.cls-13,.cls-16{fill:#704c32;}.cls-11{opacity:0.23;}.cls-12,.cls-14{fill:#855b3a;}.cls-13,.cls-14{opacity:0.25;}.cls-15{opacity:0.34;}.cls-16{opacity:0.31;}.cls-17{opacity:0.73;}.cls-18{opacity:0.66;}</style></defs><title>Mesa de trabajo 28</title><g class="cls-1"><g id="Layer_1" data-name="Layer 1"><path class="cls-2" d="M40.34,48.2H4A4.08,4.08,0,0,1,0,44L5.23,24.43s.37-4.16,4-4.16H35.11c3.52,0,4,4.16,4,4.16L44.31,44A4.08,4.08,0,0,1,40.34,48.2Z"/><path class="cls-3" d="M39.41,34.9l2.11,7.9a3.57,3.57,0,0,1-3.47,3.64H6.26A3.57,3.57,0,0,1,2.79,42.8L4.88,35s4.08-2,17.5-2S39.41,34.9,39.41,34.9Z"/><path class="cls-4" d="M34.25,34.9l1.8,7.9c0,2-1.33,3.64-3,3.64H6c-1.62,0-3-1.64-3-3.64L4.81,35s3.48-2,14.92-2S34.25,34.9,34.25,34.9Z"/><path class="cls-5" d="M23.26,35.34l1.13,7.6c0,1.93-.84,3.5-1.86,3.5H5.42c-1,0-2.63-1.71-2.63-3.64L4.92,35s2-1.55,9.17-1.55S23.26,35.34,23.26,35.34Z"/><path class="cls-2" d="M27.74,20.36a36.39,36.39,0,0,1,0-4.39S22,14.06,17,16a36.39,36.39,0,0,1,0,4.39s1.55,1.41,5.4,1.41S27.74,20.36,27.74,20.36Z"/><path class="cls-6" d="M13.88,10.12l.38,4.67s1.52,1.71,8.09,1.71,8.09-1.71,8.09-1.71l.38-4.67Z"/><path class="cls-7" d="M14.26,14.79s1.52,1.71,8.09,1.71A26.79,26.79,0,0,0,26,16.28,3.55,3.55,0,0,0,27,13.94c0-1.5-1.09-2.86-2.84-3.82H13.88Z"/><path class="cls-2" d="M30.82,10.12c0,1.39-3.79,2.52-8.47,2.52s-8.47-1.13-8.47-2.52,3.79-2.53,8.47-2.53S30.82,8.72,30.82,10.12Z"/><path class="cls-8" d="M22.35,7.59l-1.26,0c4.09.19,7.22,1.24,7.22,2.51s-3.13,2.32-7.22,2.5l1.26,0c4.68,0,8.47-1.13,8.47-2.52S27,7.59,22.35,7.59Z"/><path class="cls-9" d="M22.35,12.29c-4.48,0-8.14-1-8.45-2.35a1.1,1.1,0,0,0,0,.18c0,1.39,3.79,2.52,8.47,2.52s8.47-1.13,8.47-2.52a1.1,1.1,0,0,0,0-.18C30.5,11.25,26.83,12.29,22.35,12.29Z"/><path class="cls-10" d="M16.16,1.52l.75,7.9s1.4,1.83,5.44,1.83,5.44-1.83,5.44-1.83l.76-7.9Z"/><path class="cls-10" d="M16.16,1.52l.75,7.9s1.4,1.83,5.44,1.83,5.44-1.83,5.44-1.83l.76-7.9Z"/><path class="cls-11" d="M17,1.52a1,1,0,0,0,.69.93s2.53.84,4.31,1.33c1.6.43,3.2,1.1,3.75,2.13a2.23,2.23,0,0,1-.08,2.74,6.36,6.36,0,0,1-4.37,1.75,26,26,0,0,1-2.92.08h0l.25.11.12.05.24.09.18.06.24.08.23.06.24.06.28.06.25,0,.33.05.25,0,.42,0h.22c.22,0,.45,0,.69,0,4.11,0,5.44-1.83,5.44-1.83l.76-7.9Z"/><path class="cls-12" d="M28.55,1.52c0,.84-2.78,1.51-6.2,1.51s-6.19-.67-6.19-1.51S18.93,0,22.35,0,28.55.68,28.55,1.52Z"/><path class="cls-13" d="M16.16,1.52c0,.56,1.24,1,3.09,1.31,1.85-.26,3.1-.75,3.1-1.31S21.1.47,19.25.2C17.4.47,16.16,1,16.16,1.52Z"/><path class="cls-14" d="M22.35,0c-.47,0-.93,0-1.37,0C23.74.19,25.8.8,25.8,1.52S23.74,2.84,21,3c.44,0,.9,0,1.37,0,3.42,0,6.2-.67,6.2-1.51S25.77,0,22.35,0Z"/><path class="cls-13" d="M19.6,5.09c-1.07-.5-2.15-1-3.24-1.43l.55,5.76a3.34,3.34,0,0,0,.64.56l.34-.1c.65-.18,1.31-.29,2-.46,1.33-.36,2.52-1.44,1.7-2.82A4,4,0,0,0,19.6,5.09Z"/><path class="cls-13" d="M22.35,2.83c-3.28,0-6-.62-6.17-1.41a.3.3,0,0,0,0,.1c0,.84,2.77,1.51,6.19,1.51s6.2-.67,6.2-1.51a.3.3,0,0,0,0-.1C28.31,2.21,25.63,2.83,22.35,2.83Z"/><path class="cls-15" d="M15.28,12.42c-.27.09-.63,1.86,0,2.14,1.3.57,5.86,1.48,7.07.91a1.12,1.12,0,0,0,0-2.15c-.9-.25-2,.1-3.78-.23S15.72,12.28,15.28,12.42Z"/><path class="cls-16" d="M21.82,5.82c0,.82-.89,1.49-2,1.49s-2-.67-2-1.49.89-1.5,2-1.5A1.79,1.79,0,0,1,21.82,5.82Z"/><path class="cls-17" d="M39.28,24.43s-.45-4.16-4-4.16H27.73a38.64,38.64,0,0,1,0-4.3,18.17,18.17,0,0,1-3.12.45c0,.93-.13,3.83-.13,3.83a33.87,33.87,0,0,1-6.35-.06A87.48,87.48,0,0,0,30,21.34c.75.09,1.49.18,2.24.25l2.34.23.58.05.23,0,.17.05a1.87,1.87,0,0,1,.55.25,2.5,2.5,0,0,1,.71,1,4.73,4.73,0,0,1,.23.75c0,.13.06.26.08.4l0,.2a1.09,1.09,0,0,1,0,.12v0l.07.35c.33,1.66.7,3.31,1.08,5l.59,2.46.64,2.46q.63,2.45,1.34,4.89t1.4,4.61a2.19,2.19,0,0,1-1.41,2l-.25.07a1.13,1.13,0,0,1-.14,0h-.23l-1,0q-3.81.18-7.61.42c-2.54.15-5.07.34-7.61.54s-5.07.44-7.6.74h24a4.08,4.08,0,0,0,4-4.16Z"/><path class="cls-18" d="M7.5,39.73C7,41.32,6.5,42.9,6,44.48L3,44.4l1.4-5.09Z"/><ellipse class="cls-3" cx="22.18" cy="34.99" rx="17.26" ry="2.08"/><ellipse class="cls-4" cx="18.77" cy="34.99" rx="13.89" ry="2.08"/><ellipse class="cls-5" cx="15.52" cy="35.04" rx="10.46" ry="2.08"/><path class="cls-18" d="M8,38.06c.52-1.67,3-11.75,3.31-13.44l-2.8-.33L4.83,37.64Z"/></g></g></svg>